<svg xmlns="http://www.w3.org/2000/svg" viewBox="0 0 30 30"><circle cx="15" cy="15" r="15" fill="#69b8d6"/><path d="m22.31 14.679c0 0 0 .074 0 .074.531.18.954.495 1.268.946.314.45.471 1 .471 1.653 0 1.422-.461 2.521-1.381 3.297-.921.776-2.226 1.164-3.916 1.164 0 0-4.953 0-4.953 0 0 0 2.798-13.617 2.798-13.617 0 0 4.41 0 4.41 0 1.309 0 2.302.256 2.978.768.676.513 1.015 1.247 1.015 2.203 0 1.789-.897 2.959-2.69 3.512m-4.382 4.294c0 0 .742 0 .742 0 .52 0 .953-.151 1.3-.452.347-.301.52-.679.52-1.132 0-.428-.099-.748-.298-.959-.2-.211-.55-.317-1.051-.317 0 0-.615 0-.615 0 0 0-.598 2.86-.598 2.86m2.246-7.992c0 0-.571 0-.571 0 0 0-.543 2.44-.543 2.44 0 0 .652 0 .652 0 .531 0 .932-.118 1.204-.354.272-.236.407-.614.407-1.136 0-.633-.383-.95-1.149-.95m-8.07-.037c-.386 0-.684.087-.892.26-.208.174-.312.429-.312.764 0 .305.101.589.303.852.202.264.587.617 1.155 1.058.712.54 1.24 1.108 1.584 1.704.344.596.516 1.279.516 2.049 0 1.379-.443 2.452-1.331 3.218-.887.767-2.125 1.151-3.712 1.151-.664 0-1.292-.076-1.883-.228-.592-.153-1.102-.375-1.531-.666 0 0 0-3.26 0-3.26.507.329 1.088.605 1.743.829.655.223 1.248.335 1.78.335.446 0 .784-.096 1.014-.289.229-.192.344-.466.344-.82 0-.167-.037-.324-.109-.47-.072-.146-.175-.292-.308-.438-.133-.146-.489-.467-1.068-.964-.706-.583-1.22-1.179-1.539-1.788-.321-.609-.48-1.276-.48-2 0-.813.197-1.544.593-2.193.395-.649.953-1.152 1.675-1.509.721-.357 1.528-.536 2.422-.536 1.442 0 2.74.333 3.893.997 0 0-1.222 2.766-1.222 2.766-1.032-.546-1.911-.819-2.635-.819" fill-rule="evenodd" fill="#fff"/></svg>