<svg width="43" height="23" viewBox="0 0 43 23" xmlns="http://www.w3.org/2000/svg"><title>scissors</title><path d="M587.825996,38.3690132 C586.516658,38.0183816 585.174374,38.7893004 584.823743,40.1005212 C584.474523,41.4084475 585.247324,42.7530842 586.556192,43.1027745 C587.863648,43.4524647 589.206872,42.6853111 589.558445,41.3707958 C589.908606,40.0623989 589.137687,38.7196447 587.825996,38.3690132 L587.825996,38.3690132 L587.825996,38.3690132 Z M586.184381,36.302405 C587.367116,35.9315356 588.671747,35.3601709 590.038505,34.6622023 C590.858371,35.0980209 591.700357,35.5785508 592.552227,36.0863783 L590.280417,37.3980697 C591.502215,38.5304449 592.021808,40.2737191 591.583166,41.9120391 C590.935086,44.3316321 588.437836,45.7751046 586.014949,45.1270245 C583.577,44.4737673 582.149059,41.9892251 582.798551,39.5588072 C583.243312,37.8997788 584.547944,36.6756275 586.184381,36.302405 Z M594.440931,32.1489507 C599.693344,28.9047852 604.930697,24.9861835 607.164856,24.0623046 C608.472782,23.5215319 609.887545,24.2835084 611.371493,25.2215067 L596.906647,33.572656 L594.440931,32.1489507 Z M586.08178,31.9559857 C584.490996,31.5540537 583.232017,30.3449631 582.799022,28.7235863 C582.150471,26.3054053 583.597238,23.8029785 586.014949,23.1544278 C588.434071,22.5077596 590.933674,23.9517027 591.583166,26.3703545 C592.025103,28.0256178 591.492331,29.7924243 590.232882,30.926682 L611.403026,43.1493684 C609.919549,44.086896 608.505727,44.8498138 607.19686,44.3090411 C603.68772,42.8589796 592.78002,34.0616576 586.08178,31.9559857 Z M584.823743,28.182343 C584.47264,26.8711222 585.245442,25.5316626 586.556192,25.1805604 C587.86553,24.8289876 589.207343,25.6036715 589.557504,26.9120684 C589.908136,28.222348 589.138158,29.5636901 587.825525,29.913851 C586.516187,30.2630706 585.173433,29.4935638 584.823743,28.182343 Z M602.663594,33.3966342 L602.663594,34.88623 L599.684873,34.88623 L599.684873,33.3966342 L602.663594,33.3966342 Z M625,33.3966342 L625,34.88623 L622.02222,34.88623 L622.02222,33.3966342 L625,33.3966342 Z M617.554374,33.3966342 L617.554374,34.88623 L614.576124,34.88623 L614.576124,33.3966342 L617.554374,33.3966342 Z M607.130969,33.3966342 L610.109219,33.3966342 L610.109219,34.88623 L607.130969,34.88623 L607.130969,33.3966342 Z" transform="translate(-582 -23)" fill="#FFF" fill-rule="evenodd"/></svg>