<svg xmlns="http://www.w3.org/2000/svg" xmlns:xlink="http://www.w3.org/1999/xlink" width="162.939" height="211.186" viewBox="0 0 162.939 211.186"><defs><path id="a" d="M0 0h162.94v211.186H0z"/></defs><clipPath id="b"><use xlink:href="#a" overflow="visible"/></clipPath><g clip-path="url(#b)"><defs><path id="c" d="M0 0h162.94v211.186H0z"/></defs><clipPath id="d"><use xlink:href="#c" overflow="visible"/></clipPath><path clip-path="url(#d)" fill="#F0F6F7" d="M50.574 136.535c-.167-6.41-5.162-11.612-11.483-12.112-1.59-6.372-7.35-11.094-14.213-11.094-7.186 0-13.16 5.177-14.407 12.002C4.665 125.465 0 130.208 0 136.045c0 .163.005.326.013.49h50.56zM162.938 104.01c-.17-6.464-5.204-11.712-11.578-12.216-1.604-6.424-7.41-11.184-14.332-11.184-7.246 0-13.27 5.22-14.527 12.102-5.853.134-10.557 4.917-10.557 10.8 0 .168.006.333.014.497h50.98z"/><g opacity=".07" clip-path="url(#d)"><defs><path id="e" d="M59.745 206.092h68.606v5.094H59.746z"/></defs><clipPath id="f"><use xlink:href="#e" overflow="visible"/></clipPath><path clip-path="url(#f)" d="M128.353 208.638c0 1.407-15.358 2.548-34.304 2.548s-34.304-1.14-34.304-2.548 15.358-2.547 34.303-2.547 34.303 1.14 34.303 2.548"/></g><path clip-path="url(#d)" fill="#F9EBDC" d="M50.004 158.695c1.455.387 7.637 2.246 9.336 2.488 1.7.242 3.575-.04 4.825-1.254 2.57-4.46 4.256-12.137 4.14-13.09-.273-2.23-3.206-3.165-5.18-2.212-1.97.953-3.147 3.043-4.2 5.01-.564 1.05-1.126 2.1-1.688 3.15-2.826-.895-4.55-1.006-7.376-1.898-.023-1.892-2.833-2.613-3.17-3.895-.492-1.864-2.91-2.283-2.29 1.877-2.032 2.1-3.747 7.34 5.604 9.823"/><g opacity=".08" clip-path="url(#d)"><defs><path id="g" d="M42.58 149.34h7.17v9.228h-7.17z"/></defs><clipPath id="h"><use xlink:href="#g" overflow="visible"/></clipPath><path clip-path="url(#h)" fill="#603813" d="M44.66 149.34c.153.04.3.118.455.13 5.928.393 4.51 7.603 4.437 9.098-1.527-.063.014.004 0 0-9.668-2.734-7.17-6.77-4.892-9.227"/></g><path clip-path="url(#d)" fill="#F9EBDC" d="M42.457 149.704c.17-.666.837-1.066 1.483-.89l3.137.853c.645.177 1.033.864.863 1.53-.17.667-.837 1.068-1.482.892.645.176 1.033.864.863 1.53s-.837 1.067-1.482.892c.645.176 1.034.864.863 1.53-.17.666-.836 1.067-1.48.893l-3.138-.855c-.646-.176-1.034-.865-.864-1.53.17-.666.838-1.068 1.483-.893-.644-.176-1.033-.865-.862-1.53.17-.667.837-1.067 1.482-.892-.645-.176-1.033-.865-.863-1.53M114.823 159.138c-1.404.372-7.366 2.164-9.005 2.397s-3.448-.038-4.653-1.208c-2.48-4.296-4.104-11.695-3.992-12.612.262-2.15 3.092-3.05 4.993-2.132 1.903.918 3.037 2.933 4.055 4.828l1.628 3.035c2.725-.86 4.39-.967 7.113-1.828.024-1.823 2.734-2.52 3.06-3.753.475-1.796 2.808-2.2 2.21 1.808 1.958 2.024 3.613 7.075-5.407 9.466"/><g opacity=".08" clip-path="url(#d)"><defs><path id="i" d="M115.068 150.125h6.917v8.89h-6.917z"/></defs><clipPath id="j"><use xlink:href="#i" overflow="visible"/></clipPath><path clip-path="url(#j)" fill="#603813" d="M119.98 150.125c-.148.04-.29.113-.44.123-5.718.38-4.35 7.327-4.278 8.767 1.472-.06-.015.004 0 0 9.322-2.633 6.914-6.52 4.717-8.89"/></g><path clip-path="url(#d)" fill="#F9EBDC" d="M122.103 150.474c-.164-.642-.808-1.027-1.43-.858l-3.026.823c-.622.168-.997.832-.833 1.475.165.642.81 1.028 1.43.858-.62.17-.995.834-.832 1.476.164.64.81 1.027 1.43.857-.62.17-.996.834-.832 1.477.164.642.808 1.028 1.43.858l3.026-.823c.622-.17.997-.835.833-1.478-.166-.64-.81-1.027-1.432-.858.622-.17.997-.833.832-1.476-.164-.642-.807-1.027-1.43-.858.623-.17.997-.833.833-1.476"/><path clip-path="url(#d)" fill="#F4DD9D" d="M74.448 197.59c-7.08 0-15.364 4.126-15.364 9.218h21.404c0-5.092 1.04-9.22-6.04-9.22"/><path clip-path="url(#d)" fill="#C69C6D" d="M59.083 206.808h21.404v1.948H59.083z"/><path clip-path="url(#d)" fill="#F4DD9D" d="M91.073 197.59c7.08 0 15.364 4.126 15.364 9.218H85.033c0-5.092-1.04-9.22 6.04-9.22"/><path clip-path="url(#d)" fill="#C69C6D" d="M85.034 206.808h21.404v1.948H85.034z"/><path clip-path="url(#d)" fill="#EFEFEF" d="M97.636 138.347c-.778-.53-1.69-.902-2.664-1.01-.968-.107-1.92.036-2.653.422-.368.173-.664.41-.897.672-.233.253-.4.532-.512.833-.222.59-.207 1.192-.055 1.79.32 1.197.987 2.2 1.14 3.04.152.834.008 1.296.534 1.63l.07.052c.046.04.11.07.203.155.183.153.458.373.81.746.698.706 1.647 1.953 2.527 3.348.88 1.4 1.7 2.925 2.283 4.096.587 1.17.955 1.977.955 1.977l8.134-3.79s-.403-.89-1.07-2.22c-.665-1.327-1.607-3.093-2.71-4.85-1.108-1.757-2.404-3.506-3.666-4.796-.61-.646-1.23-1.174-1.677-1.535-.218-.184-.428-.322-.553-.417l-.2-.146"/><path clip-path="url(#d)" fill="#EFEFEF" d="M94.943 136.908c-2.957-.66-7.52-1.457-12.27-1.46-4.755 0-9.333.8-12.298 1.462-1.874.416-3.367 2.41-3.367 4.328v25.44h31.298v-25.44c.002-1.917-1.49-3.914-3.363-4.33"/><path clip-path="url(#d)" fill="#F7DFBF" d="M89.143 132.478l.484 4.803s-1.216 5.26-6.97 5.26-6.967-5.26-6.967-5.26l.485-4.802h12.968z"/><path clip-path="url(#d)" fill="#578EA0" d="M67.01 166.678l.15 31.735h12.724l-.033-22.46c0-1.28 1.04-2.316 2.317-2.316h.99c1.28 0 2.317 1.037 2.317 2.315l.01 22.46H98.21l.1-31.734h-31.3z"/><path clip-path="url(#d)" fill="#EFEFEF" d="M72.528 145.72c.526-.335.382-.796.534-1.63.152-.84.817-1.845 1.137-3.04.15-.6.165-1.202-.06-1.792-.11-.3-.278-.58-.512-.832-.233-.26-.53-.5-.896-.673-.734-.385-1.686-.527-2.653-.42-.976.11-1.887.483-2.666 1.013l-.2.146c-.125.095-.336.233-.55.417-.45.36-1.068.89-1.677 1.535-1.26 1.292-2.555 3.042-3.662 4.8-1.1 1.756-2.042 3.522-2.706 4.852-.667 1.33-1.07 2.22-1.07 2.22l8.137 3.782s.367-.81.953-1.98c.584-1.17 1.4-2.694 2.28-4.095.878-1.396 1.828-2.645 2.527-3.352.348-.373.624-.593.807-.747.094-.084.158-.114.205-.153l.068-.053z"/><g opacity=".2" clip-path="url(#d)"><defs><path id="k" d="M75.92 132.478h13.707v7.768H75.92z"/></defs><clipPath id="l"><use xlink:href="#k" overflow="visible"/></clipPath><path clip-path="url(#l)" fill="#603813" d="M76.175 132.478l-.254 2.52c2.455 2.66 6.853 4.626 12.094 5.248 1.246-1.417 1.612-2.965 1.612-2.965l-.484-4.802H76.175z"/></g><path clip-path="url(#d)" fill="#F7DFBF" d="M102.865 123.438c1.43-2.925 2.233-6.208 2.233-9.678 0-2.124-.307-4.177-.868-6.122-.218-5.167-1.96-28.057-15.82-28.057H76.95c-14.012 0-15.64 23.377-15.828 28.195-.536 1.905-.83 3.91-.83 5.985 0 3.347.752 6.518 2.09 9.363 1.366 3.428 3.75 6.332 6.788 8.34 3.76 2.827 8.444 4.508 13.526 4.508 5.132 0 9.857-1.714 13.636-4.592 2.882-1.942 5.17-4.7 6.533-7.94"/><path clip-path="url(#d)" fill="#F7DFBF" d="M64.417 117.283c0 3.02-2.448 5.47-5.468 5.47s-5.47-2.448-5.47-5.47c0-3.02 2.45-5.468 5.47-5.468s5.467 2.447 5.467 5.468M112.716 117.283c0 3.02-2.448 5.47-5.47 5.47-3.02 0-5.468-2.448-5.468-5.47 0-3.02 2.45-5.468 5.47-5.468 3.02 0 5.468 2.447 5.468 5.468"/><path clip-path="url(#d)" fill="#FFF" d="M77.222 114.81c0 2.36-1.913 4.272-4.272 4.272-2.36 0-4.273-1.912-4.273-4.272 0-2.36 1.913-4.27 4.273-4.27 2.36 0 4.272 1.91 4.272 4.27"/><path clip-path="url(#d)" d="M74.782 114.81c0 1.013-.82 1.832-1.832 1.832s-1.833-.82-1.833-1.832.82-1.832 1.833-1.832c1.012 0 1.832.82 1.832 1.832"/><path clip-path="url(#d)" fill="#FFF" d="M97.47 114.81c0 2.36-1.913 4.272-4.27 4.272-2.36 0-4.274-1.912-4.274-4.272 0-2.36 1.913-4.27 4.273-4.27 2.357 0 4.27 1.91 4.27 4.27"/><path clip-path="url(#d)" d="M95.03 114.81c0 1.013-.82 1.832-1.832 1.832s-1.833-.82-1.833-1.832.82-1.832 1.833-1.832 1.832.82 1.832 1.832"/><g opacity=".5" clip-path="url(#d)"><defs><path id="m" d="M78.166 125.525h9.738v2.874h-9.738z"/></defs><clipPath id="n"><use xlink:href="#m" overflow="visible"/></clipPath><path clip-path="url(#n)" fill="#C97E5D" d="M78.166 125.525c.948 1.713 2.773 2.874 4.87 2.874 2.096 0 3.92-1.162 4.87-2.875h-9.74z"/></g><g opacity=".1" clip-path="url(#d)"><defs><path id="o" d="M56.124 114.46h5.648v5.647h-5.648z"/></defs><clipPath id="p"><use xlink:href="#o" overflow="visible"/></clipPath><path clip-path="url(#p)" fill="#603813" d="M61.772 117.284c0 1.56-1.264 2.824-2.824 2.824-1.56 0-2.825-1.265-2.825-2.824s1.265-2.824 2.825-2.824c1.56 0 2.824 1.264 2.824 2.824"/></g><g opacity=".1" clip-path="url(#d)"><defs><path id="q" d="M104.423 114.46h5.648v5.647h-5.647z"/></defs><clipPath id="r"><use xlink:href="#q" overflow="visible"/></clipPath><path clip-path="url(#r)" fill="#603813" d="M110.07 117.284c0 1.56-1.263 2.824-2.823 2.824s-2.825-1.265-2.825-2.824 1.266-2.824 2.825-2.824c1.56 0 2.824 1.264 2.824 2.824"/></g><g opacity=".3" clip-path="url(#d)"><defs><path id="s" d="M61.744 77.117h43.442v33.225H61.744z"/></defs><clipPath id="t"><use xlink:href="#s" overflow="visible"/></clipPath><path clip-path="url(#t)" fill="#603813" d="M103.287 110.342c-.083-.35 1.995-4.825 1.896-5.168-.218-5.167-1.96-28.057-15.82-28.057h-11.46c-7.334 0-14.04 14.51-16.16 21.305 6.347-1.32 15.617.078 23.464 3.106 7.744 2.99 14.375 2.528 18.08 8.814"/></g><path clip-path="url(#d)" d="M60.705 114.646s-.98-2.97-1.525-4.515c-.544-1.543-.65-10.37-.65-12.016s0-7.493.98-8.626c0 0-.555-2.558-.555-3.45 0 0-2.036-3.28-2.986-5.266 0 0 2.985 1.916 4 2.186 0 0-1.964-2.738-2.69-3.972 0 0 2.69 2.397 3.564 2.88 0 0-.726-1.506-.65-2.26 0 0 1.386 2.47 3.785 3.633 0 0-.588-2.328-2.187-4.043 0 0 1.45-.342 1.888.34 0 0-.213-2.807-1.375-4.243 0 0 2.4-.55 3.925.683 0 0-2.838-2.187-4.437-2.808 0 0 3.125-.132 5.024 1.643 0 0-2.038-2.187.362-2.948 0 0-.588 1.304 1.162 1.644 0 0-1.45-2.187.662-4.103 0 0-1.025 2.598 1.31 4.242 0 0-.435-2.056 2.252-3.22 0 0-1.312 1.503-.95 3.36 0 0 .588-2.808 2.913-3.22 0 0-1.89 1.776-1.526 3.832 0 0 2.624-3.29.074-6.71 0 0 2.988.21 4.075 1.985 0 0 .437-1.504.875-1.645 0 0 .587 1.304 1.312 1.715 0 0 .362-.55 0-1.303 0 0 1.013.822 1.013 1.445 0 0 1.824-.483 2.41.47.577.963 3.052 1.916 5.388 2.056 0 0-2.835-3.15-6.697-3.15 0 0 2.11-1.093 5.824 1.164 0 0-1.313-1.574-2.038-1.986 0 0 3.05.14 6.187 3.902 0 0 .65-.823-.662-1.847 0 0 3.136 1.023 5.1 3.76 0 0-1.377-2.395-2.764-3.15 0 0 5.75 1.988 4.738 4.255 0 0 .798 1.094 1.663 1.635.875.552 5.176 3.702 5.463 5.415.298 1.707.812 1.707 1.312 1.647 0 0 .8-.352 1.023-1.104 0 0 .14 1.304-1.023 1.845 0 0-.288 1.586 1.536 1.856 0 0 1.09.41 1.163 1.022 0 0-1.46-.41-2.623-.34 0 0 1.312 1.916 2.697 2.94 0 0 1.6.89-.8 5.074 0 0-.586 3.21-.51 4.654.073 1.434 0 4.584 0 6.23 0 1.645.073 2.668-1.1 4.863-1.164 2.188-2.176 3.08-2.25 4.033-.076.962.137 3.078-.076 3.29 0 0-.8-.212-.8-1.715 0-1.504-.23-4.908-.223-6.37.037-7.585-4.8-16.77-4.8-16.77-11.64 10.258-27.697-5.346-34.806 10.682-.915 2.063-2.474 7.604-2.612 8.696-.15 1.095.234 2.24-.363 1.698"/><path clip-path="url(#d)" fill="#4D4D4D" d="M65.11 81.254s2.186 1.962 2.623 3.275c.438 1.312 2.91 5.31 6.837 6.623 0 0-4.873-3.936-6.473-7.723 0 0 2.26.95 4.223 4.012 0 0 2.912 4.8 6.624 5.237 0 0-2.912-2.327-3.786-5.09 0 0-2.7-7.51-4.588-9.248 0 0-.65 3.638.65 6.112 0 0-.937-1.31-4.36-2.037 0 0-.726-1.098-1.75-1.163"/><path clip-path="url(#d)" fill="#4D4D4D" d="M72.76 77.906s1.748 2.036 1.885 4.148c0 0 .44 6.262 3.788 8.15 0 0-1.675-2.187-1.675-3.86 0 0 1.162 4.66 5.313 5.822 0 0-2.763-2.175-3.2-3.562 0 0 1.162 1.75 2.55 2.262l-1.238-1.9s1.675 2.838 4.224 3.35c0 0-5.675-4.3-7.424-9.824 0 0 1.962 4.437 4.724 6.038 0 0-2.325-2.55-2.762-4.737 0 0 1.675.81 2.55 2.774 0 0 1.31 3.786 5.313 4.436 0 0-2.25-1.6-3.274-5.097 0 0-.728-1.89-2.263-2.763 0 0 1.388.224 2.848 2.763 0 0 2.614 4.884 6.69 5.685 0 0-3.34-2.26-5.164-5.897 0 0 3.425 4.874 7.497 6.623 0 0-3.423-2.912-4.733-5.238 0 0 3.86 2.837 5.322 4.652 0 0-3.724-5.527-7.938-9.1l5.164 4.225s-.513-2.112-1.814-3.275c0 0 4.95 5.387 6.262 6.26 0 0-2.912-5.236-5.397-6.697 0 0 4.225 1.162 5.76 5.387 0 0-1.75-4.288 1.89-1.452 0 0-.29-1.75-2.914-2.985 0 0-5.535-3.713-7.35-5.537 0 0 2.688.726 5.025 3.136 0 0-1.025-2.26-4.588-4.298 0 0-2.986-1.675-4.447-3.638 0 0 .95 2.326 3.286 3.786 0 0-3.788-1.75-5.324-2.186 0 0 1.536 1.888 2.698 2.55 0 0-3.062-1.386-3.935-2.413 0 0-1.602-1.523-3.49-1.6 0 0 2.614 1.24 3.926 4.226 0 0-1.75-.29-2.838-2.252 0 0-.15 1.45.726 2.912 0 0-.513.437-1.45-1.238 0 0-.15 1.6 1.012 3.777 0 0-1.887-.652-2.55-3.49 0 0-.213 1.526.95 3.424 0 0-1.825-3.06-3.637-3.348"/><path clip-path="url(#d)" fill="#AA835C" d="M94.303 103.918c-5.395 0-9.863 3.98-10.658 9.154h-1.613c-.796-5.175-5.265-9.154-10.658-9.154-5.954 0-10.797 4.844-10.797 10.797s4.843 10.796 10.797 10.796c5.795 0 10.524-4.59 10.773-10.325h1.383c.25 5.734 4.98 10.326 10.773 10.326 5.954 0 10.797-4.842 10.797-10.795s-4.843-10.797-10.797-10.797m-22.93 19.957c-5.058 0-9.16-4.102-9.16-9.16 0-5.06 4.102-9.16 9.16-9.16s9.16 4.1 9.16 9.16c0 5.06-4.1 9.16-9.16 9.16m22.93 0c-5.06 0-9.16-4.102-9.16-9.16 0-5.06 4.1-9.16 9.16-9.16 5.06 0 9.16 4.1 9.16 9.16 0 5.06-4.102 9.16-9.16 9.16"/><path clip-path="url(#d)" fill="none" stroke="#CCC" stroke-width=".53" d="M44.58 156.675v17.01M117.43 157.918v17.01M44.294 61.68l.57 87.464M34.378 84.646l9.88 64.106"/><path clip-path="url(#d)" fill="#FFEB97" d="M71.858 27.28c0 15.064-12.214 35.23-27.278 35.23-15.065 0-27.28-20.166-27.28-35.23S29.516 0 44.58 0c15.064 0 27.278 12.214 27.278 27.28"/><path clip-path="url(#d)" fill="#FFEB97" d="M43.422 61.61l-2.195 5.233h5.505s-1.15-8.07-1.115-8.172c.034-.1-2.228 3.007-2.195 2.94"/><path clip-path="url(#d)" fill="#FFEB97" d="M46.303 61.61l2.195 5.233h-5.504s1.15-8.07 1.115-8.172c-.036-.1 2.227 3.007 2.193 2.94"/><path clip-path="url(#d)" fill="#FFF" d="M26.207 25.515c-1.432-.238-2.402-1.592-2.164-3.025 1.53-8.986 7.776-13.122 8.048-13.315h.003c1.21-.8 2.843-.464 3.643.75.798 1.21.464 2.84-.747 3.64l-.003.002c-.02.014-.06.043-.115.085-.11.082-.288.22-.512.412-.446.384-1.08.986-1.748 1.802-1.34 1.638-2.816 4.1-3.38 7.484-.234 1.416-1.557 2.378-2.97 2.174l-.055-.01"/><path clip-path="url(#d)" fill="none" stroke="#CCC" stroke-width=".53" d="M117.953 62.82v87.467"/><path clip-path="url(#d)" fill="#FEC133" d="M143.896 40.185c0 14.327-11.615 33.505-25.943 33.505-14.327 0-25.94-19.18-25.94-33.505 0-14.328 11.613-25.943 25.94-25.943 14.327 0 25.943 11.615 25.943 25.943"/><path clip-path="url(#d)" fill="#FEC133" d="M116.852 72.834l-2.088 4.977H120s-1.094-7.674-1.06-7.77c.033-.096-2.12 2.858-2.088 2.794"/><path clip-path="url(#d)" fill="#FEC133" d="M119.592 72.834l2.088 4.977h-5.235s1.094-7.674 1.06-7.77c-.032-.096 2.12 2.858 2.087 2.794"/><path clip-path="url(#d)" fill="#FFF" d="M99.658 39.045c-1.362-.226-2.283-1.514-2.06-2.877 1.455-8.545 7.397-12.48 7.656-12.663 1.153-.76 2.705-.442 3.466.71.76 1.154.442 2.705-.71 3.466l-.003.002c-.02.014-.056.04-.108.08-.107.08-.275.21-.487.393-.425.365-1.027.937-1.664 1.713-1.276 1.558-2.68 3.898-3.213 7.118-.224 1.347-1.48 2.26-2.826 2.067l-.052-.008"/><path clip-path="url(#d)" fill="#A6CDCD" d="M53.54 60.73c2.996 13.664-4.07 34.38-17.732 37.376-13.663 2.996-28.75-12.863-31.746-26.525C1.066 57.92 9.714 44.414 23.375 41.418 37.038 38.42 50.543 47.07 53.54 60.73"/><path clip-path="url(#d)" fill="#A6CDCD" d="M34.58 97.52l-.95 5.184 4.99-1.095s-2.646-7.09-2.635-7.19c.01-.098-1.423 3.17-1.406 3.1"/><path clip-path="url(#d)" fill="#A6CDCD" d="M37.192 96.948l3.032 4.31-4.992 1.095s-.563-7.548-.614-7.633 2.618 2.283 2.574 2.228"/><path clip-path="url(#d)" fill="#FFF" d="M11.788 68.21c-1.346.07-2.495-.966-2.564-2.313-.4-8.453 4.442-13.446 4.65-13.676h.002c.94-.966 2.486-.986 3.453-.045.964.94.986 2.485.046 3.452h-.002l-.087.1c-.084.098-.217.257-.382.477-.33.437-.783 1.11-1.227 1.98-.89 1.754-1.74 4.28-1.576 7.46.068 1.332-.94 2.467-2.26 2.563-.02 0-.036.002-.054.003"/><path clip-path="url(#d)" fill="#578EA0" d="M74.996 153.12c0 .433-.06.807-.184 1.12-.122.315-.286.576-.49.78s-.436.357-.695.457c-.258.1-.52.148-.786.148h-.704v2.834h-1.604v-7.778h2.248c.258 0 .52.04.78.12.263.08.502.215.716.4.215.19.388.44.52.754.134.315.2.704.2 1.165m-1.532.034c0-.353-.078-.604-.235-.758-.158-.154-.348-.23-.573-.23h-.52v2.032h.52c.225 0 .415-.09.572-.27.156-.18.234-.437.234-.774M78.628 158.46l-.967-3.1h-.478v3.1H75.61v-7.78h2.313c.7 0 1.243.197 1.63.59.388.392.582.976.582 1.752 0 .285-.03.542-.092.77-.06.226-.14.42-.24.58-.098.163-.208.294-.33.397s-.24.176-.356.22l1.232 3.47h-1.722zm-.097-5.34c0-.197-.025-.358-.076-.482-.05-.125-.117-.224-.2-.297s-.17-.12-.27-.146c-.098-.026-.195-.04-.29-.04h-.512v1.968h.48c.232 0 .435-.08.608-.237.174-.16.26-.413.26-.764M86.142 154.548c0 .615-.064 1.177-.194 1.687s-.313.942-.55 1.302c-.24.36-.53.637-.875.835s-.73.297-1.16.297-.815-.1-1.16-.298-.634-.476-.872-.835c-.238-.36-.422-.793-.55-1.302-.13-.51-.195-1.07-.195-1.687s.063-1.173.19-1.675.307-.93.546-1.285c.24-.355.53-.63.874-.824.344-.193.734-.292 1.17-.292.43 0 .815.1 1.16.292.343.194.634.47.873.824.238.355.422.783.55 1.285.13.502.195 1.06.195 1.675m-1.676 0c0-.337-.023-.65-.07-.938-.048-.29-.118-.54-.21-.753-.092-.212-.206-.38-.342-.5-.138-.12-.297-.182-.48-.182s-.346.062-.486.182-.255.288-.347.5c-.09.213-.16.464-.203.753s-.066.602-.066.938.023.652.067.945.112.545.204.758c.093.213.21.382.348.506.14.125.303.188.486.188s.343-.063.48-.188c.136-.124.25-.293.342-.505.092-.212.162-.464.21-.757.046-.292.07-.608.07-.945"/><path clip-path="url(#d)" fill="#578EA0" d="M89.718 158.46l-1-2.572-.992 2.57H86.02l1.777-4.075-1.635-3.702h1.706l.89 2.363.898-2.362h1.675l-1.643 3.693 1.797 4.086"/><path clip-path="url(#d)" fill="#578EA0" d="M94.56 155.66v2.8h-1.604v-2.8l-1.83-4.978h1.77l.867 3.218h.02l.88-3.218h1.735"/></g></svg>