<svg xmlns="http://www.w3.org/2000/svg" xmlns:xlink="http://www.w3.org/1999/xlink" width="268.96" height="282.408" viewBox="0 0 268.96 282.408"><defs><path id="a" d="M0 0h268.96v282.408H0z"/></defs><clipPath id="b"><use xlink:href="#a" overflow="visible"/></clipPath><g clip-path="url(#b)"><defs><path id="c" d="M0 0h268.96v282.408H0z"/></defs><clipPath id="d"><use xlink:href="#c" overflow="visible"/></clipPath><path clip-path="url(#d)" fill="#F0F6F7" d="M213.347 87.52c-.288-11.053-8.9-20.03-19.804-20.89C190.8 55.64 180.867 47.5 169.03 47.5c-12.394 0-22.697 8.927-24.847 20.7-10.012.228-18.057 8.408-18.057 18.473 0 .284.01.567.022.848h87.2zM263.252 147.188c-.2-7.683-6.188-13.92-13.767-14.52-1.906-7.64-8.81-13.297-17.038-13.297-8.614 0-15.775 6.206-17.27 14.39-6.96.157-12.55 5.844-12.55 12.84 0 .196.005.393.014.588h60.612z"/><g opacity=".07" clip-path="url(#d)"><defs><path id="e" d="M140.127 254.02H268.96v22H140.127z"/></defs><clipPath id="f"><use xlink:href="#e" overflow="visible"/></clipPath><path clip-path="url(#f)" d="M144.98 256.02l-4.854 4 56.847 16 71.987-14-44.564-8"/></g><g opacity=".07" clip-path="url(#d)"><defs><path id="g" d="M71.953 248.307H227.82v9.008H71.952z"/></defs><clipPath id="h"><use xlink:href="#g" overflow="visible"/></clipPath><path clip-path="url(#h)" d="M227.82 252.81c0 2.488-34.894 4.505-77.936 4.505-43.04 0-77.932-2.017-77.932-4.505s34.893-4.503 77.932-4.503c43.043 0 77.935 2.014 77.935 4.503"/></g><path clip-path="url(#d)" fill="none" stroke="#CCC" stroke-width=".53" d="M72.73 188.21v15.045M73.125 191.203l1.2 11.646M72.828 190.37l-1.83 11.845M72.562 190.838l2.793 11.145M70.207 93.518l1.98 90.458M72.46 149.83l-.272 25.54M70.565 149.56l1.487 29.866M41.195 106.67l30.452 43.833M50.385 101.626L71.24 151.45M53.63 94.417l17.476 54.78M55.43 92.076l16.217 59.102M71.827 157.847l-3.063-57.302M73.09 91.895l-1.848 58.473M77.956 109.375l-6.128 40.543M84.26 118.564L71.468 151M85.883 123.97l-14.596 28.11"/><path clip-path="url(#d)" fill="#E47F00" d="M88.538 72.584c.246 10.955-8.307 25.816-19.262 26.06-10.952.246-20.162-14.22-20.406-25.175-.247-10.955 8.436-20.035 19.39-20.28 10.958-.244 20.036 8.44 20.278 19.394"/><path clip-path="url(#d)" fill="#FEC133" d="M72.755 74.71l-1.243 80.326"/><path clip-path="url(#d)" fill="#E47F00" d="M68.42 98.01l-1.51 3.84 4-.09s-.965-5.848-.943-5.923c.022-.074-1.57 2.223-1.546 2.172"/><path clip-path="url(#d)" fill="#FEC133" d="M62.31 58.165s1.41-1.866 4.083-2.258c0 0 1.815.245.735 1.572 0 0-2.55 1.597-3.06 1.754 0 0-3.12 1.154-1.76-1.07"/><path clip-path="url(#d)" fill="#FFDD20" d="M80.478 66.127h23.064V89.01H80.478z"/><path clip-path="url(#d)" fill="#A6CDCD" d="M119.19 103.118c-5.794 11.49-22.375 23.03-33.255 18.297-10.884-4.735-11.947-23.953-6.15-35.442 5.796-11.49 19.316-16.967 30.198-12.23 10.882 4.732 15.003 17.886 9.207 29.375"/><path clip-path="url(#d)" fill="#A6CDCD" d="M85.442 120.364l-3.597 3.302 3.974 1.73s2.276-6.515 2.338-6.58c.066-.07-2.765 1.59-2.716 1.548"/><path clip-path="url(#d)" fill="#A6CDCD" d="M87.525 121.27l-.428 4.682-3.976-1.73s3.935-5.793 3.95-5.884c.015-.085.453 2.993.455 2.933"/><path clip-path="url(#d)" fill="#FFF" d="M85.176 87.62s2.065-3.61 6.52-5.178c0 0 3.113-.2 1.516 2.393 0 0-4.043 3.544-4.88 3.98 0 0-5.082 2.996-3.156-1.196"/><path clip-path="url(#d)" fill="#FEC133" d="M65.363 17.317c2.994 12.515-2.212 32.034-13.578 35.447C40.42 56.176 27.195 42.19 24.2 29.674 21.21 17.16 27.994 4.246 39.36.834 50.728-2.58 62.37 4.802 65.363 17.317"/><path clip-path="url(#d)" fill="#FEC133" d="M50.732 52.278l-.616 4.845 4.15-1.246s-2.467-6.444-2.46-6.537c.006-.093-1.084 3.002-1.074 2.938"/><path clip-path="url(#d)" fill="#FEC133" d="M52.908 51.626l2.697 3.85-4.155 1.248s-.737-6.966-.783-7.042c-.045-.076 2.28 1.99 2.24 1.944"/><path clip-path="url(#d)" fill="#FFF" d="M30.592 21.65s-.807-4.39 1.753-8.758c0 0 2.41-2.32 2.9.912 0 0-.856 5.705-1.236 6.64 0 0-2.09 5.974-3.418 1.206"/><path clip-path="url(#d)" fill="#A6CDCD" d="M38.024 66.482c7.704 10.306 10.648 30.292 1.563 37.925-9.086 7.634-26.767.023-34.47-10.284-7.7-10.307-6.583-24.853 2.505-32.484 9.086-7.636 22.698-5.467 30.402 4.842"/><path clip-path="url(#d)" fill="#A6CDCD" d="M38.43 104.377l1.352 4.693 3.32-2.787s-4.82-4.942-4.85-5.028c-.033-.087.193 3.185.177 3.122"/><path clip-path="url(#d)" fill="#A6CDCD" d="M40.17 102.917l4 2.47-3.322 2.788s-3.434-6.104-3.507-6.156c-.07-.053 2.88.926 2.83.897"/><path clip-path="url(#d)" fill="#FFF" d="M7.394 87.287s-2.88-4.313-2.157-10.15c0 0 1.504-3.59 3.517-.365 0 0 1.71 6.482 1.734 7.654 0 0 .518 7.34-3.094 2.86"/><path clip-path="url(#d)" fill="#E47F00" d="M111.23 41.205c-3.005 10.537-15.57 22.204-26.108 19.198s-15.054-19.55-12.047-30.085C76.08 19.78 87.06 13.676 97.597 16.682c10.537 3.006 16.642 13.985 13.634 24.523"/><path clip-path="url(#d)" fill="#E47F00" d="M84.494 59.543l-2.58 3.222 3.848 1.1s.807-5.874.85-5.94c.045-.065-2.158 1.658-2.118 1.618"/><path clip-path="url(#d)" fill="#E47F00" d="M86.51 60.118l.49 4.098-3.85-1.098s2.416-5.414 2.41-5.494c-.005-.076.96 2.546.95 2.494"/><path clip-path="url(#d)" fill="#FEC133" d="M129.74 62.084c-3.42 11.996-17.73 25.28-29.726 21.857C88.02 80.52 82.874 61.687 86.3 49.69c3.42-11.997 15.92-18.95 27.918-15.525 11.996 3.422 18.947 15.923 15.523 27.92"/><path clip-path="url(#d)" fill="#FEC133" d="M99.3 82.963l-2.94 3.667 4.383 1.252s.92-6.688.97-6.76c.05-.074-2.46 1.886-2.413 1.84"/><path clip-path="url(#d)" fill="#FEC133" d="M101.593 83.617l.558 4.667-4.382-1.25s2.75-6.166 2.744-6.256c-.003-.087 1.094 2.9 1.08 2.84"/><g opacity=".62" clip-path="url(#d)"><defs><path id="i" d="M91.728 38.787h12.478v11.987H91.728z"/></defs><clipPath id="j"><use xlink:href="#i" overflow="visible"/></clipPath><path clip-path="url(#j)" fill="#FEC133" d="M92.975 50.562c-1.09-.514-1.553-1.813-1.037-2.9 3.26-6.808 9.173-8.682 9.435-8.774 1.145-.362 2.37.277 2.73 1.425.36 1.144-.275 2.37-1.42 2.73h-.002c-.018.007-.055.022-.112.04-.108.042-.28.11-.5.213-.445.205-1.084.54-1.8 1.037-1.442 1-3.176 2.625-4.394 5.193-.508 1.076-1.78 1.54-2.856 1.058l-.043-.022"/></g><path clip-path="url(#d)" fill="#B1B4BB" d="M62.966 178.824l2.493-1.002s2.39-.685 2.445-.398c.056.286 1.308 1.935 1.365 2.56.058.628-.112 1.65-.453 1.765-.344.113-1.37.342-1.71.397-.34.057-2.673-.854-2.843-.854-.17 0-1.46-2.55-1.298-2.47"/><path clip-path="url(#d)" fill="#B1B4BB" d="M84.91 185.932c-.17.055-7.907 3.925-8.078 3.98-.172.06-2.844-3.81-3.015-3.752-.172.057-3.813-1.31-4.155-1.765-.34-.456-1.196-5.122-1.138-5.35.056-.226 3.187-2.39 4.04-2.39s5.064.912 5.463 1.14c.398.23 6.2 1.14 6.542 1.536.34.4 3.298 1.823 3.24 2.333-.056.515-2.9 4.27-2.9 4.27"/><path clip-path="url(#d)" fill="#979AA0" d="M76.6 185.5c-2.568.85-8.603 3.385-8.603 3.385l2.026 1.758 7.133-2.27c-.182-.608-.423-2.043-.555-2.874"/><path clip-path="url(#d)" fill="#979AA0" d="M65.025 183.48l1.89 3.513 5.813 1.218 5.54-3.246s-4.053-5.808-5.27-5.944c-1.216-.134-5.54 1.354-5.946 1.486-.406.136-2.027 2.973-2.027 2.973"/><path clip-path="url(#d)" fill="#C1C3CC" d="M78.71 173.13l-4.95-.512-4.553 1.25-4.893 3.19s.512 3.58 5.747 1.988l3.414-.06s-1.025 7 7.567 7c.058 0 4.382-.682 4.382-.682l-5.176-12.288-1.537.115z"/><path clip-path="url(#d)" fill="#002D48" d="M133.795 255.56c.027-.027 2.81 0 2.81 0s.603-3.307.34-3.596c-.264-.292-1.653-.998-2.282-.893-.63.105-2.36.55-2.493.813-.13.266-.05 1.34.027 1.6.078.264.264 1.052.5 1.26.233.21 1.098.816 1.098.816"/><path clip-path="url(#d)" fill="#EB9C30" d="M132.248 237.35h9.418v11.623h-9.418z"/><path clip-path="url(#d)" fill="#206590" d="M136.53 255.577h19.862c-1.593-7.696-10.555-7.706-10.555-7.706-2.493 0-3.855-2.15-3.855-2.15-1.47-1.79-3.91-1.79-3.91-1.79-3.78-.128-4.617 2.444-4.617 2.444l-1.18-.075.026-1.763c-4.432 2.99-2.28 11.02-2.28 11.02h3.775l-.25-2.175c1.715-.176 2.72 1.643 2.985 2.195"/><g opacity=".62" clip-path="url(#d)"><defs><path id="k" d="M140.43 247.74h10.26v6.22h-10.26z"/></defs><clipPath id="l"><use xlink:href="#k" overflow="visible"/></clipPath><g clip-path="url(#l)"><defs><path id="m" d="M143.725 252l3.784-.993s3.513-1.442 3.154-1.62c-.118-.062-.08-.253-.022-.505-2.487-1.01-4.804-1.01-4.804-1.01-.362 0-.694-.057-1.008-.132-1.062.19-3.232.984-4.167 4.26-1.264 4.412 3.062 0 3.062 0"/></defs><clipPath id="n"><use xlink:href="#m" overflow="visible"/></clipPath><linearGradient id="o" gradientUnits="userSpaceOnUse" y1="282.289" x2="1" y2="282.289" gradientTransform="matrix(10.258 0 0 -10.258 140.43 3147.77)"><stop offset="0" stop-color="#8E662F"/><stop offset=".126" stop-color="#8E662F"/><stop offset=".809" stop-color="#733B19"/><stop offset="1" stop-color="#733B19"/></linearGradient><path clip-path="url(#n)" fill="url(#o)" d="M139.4 247.74h11.622v8.672H139.4z"/></g></g><path clip-path="url(#d)" fill="#206590" d="M156.397 255.577c-1.044-5.043-5.238-6.783-8.018-7.383-.05-.004-.092-.01-.14-.016-6.93-.546-8.55 5.595-8.876 7.398h17.033z"/><g opacity=".62" clip-path="url(#d)"><defs><path id="p" d="M129.63 253.382h26.763v2.195H129.63z"/></defs><clipPath id="q"><use xlink:href="#p" overflow="visible"/></clipPath><g clip-path="url(#q)"><defs><path id="r" d="M133.61 253.382h-.066c.023-.002.042.005.066.003v-.003zm-3.98 0c.002.005.002.012.003.02.134 1.11.327 1.924.375 2.115l.01.042h3.777l-.25-2.178h-3.915zm26.416.958c-.063-.18-.14-.342-.21-.513-.063-.152-.13-.3-.2-.445l-21.227.102c1.186.367 1.903 1.643 2.12 2.094h19.862c-.09-.44-.21-.845-.346-1.238"/></defs><clipPath id="s"><use xlink:href="#r" overflow="visible"/></clipPath><linearGradient id="t" gradientUnits="userSpaceOnUse" y1="282.408" x2="1" y2="282.408" gradientTransform="matrix(26.764 0 0 -26.764 129.625 7812.774)"><stop offset="0" stop-color="#8E662F"/><stop offset=".126" stop-color="#8E662F"/><stop offset=".809" stop-color="#733B19"/><stop offset="1" stop-color="#733B19"/></linearGradient><path clip-path="url(#s)" fill="url(#t)" d="M129.63 253.38h26.763v2.197H129.63z"/></g></g><path clip-path="url(#d)" fill="#002C3F" d="M116.62 116.74l-14.27 2.557 3.842 6.047s7.544 2.75 7.94 2.777c.4.026 3.312.323 4.565-1.038s4.682-5.697 4.904-6.527c.223-.83-.084-3.902-.385-3.983-.3-.08-6.596.17-6.596.17"/><path clip-path="url(#d)" fill="#206590" d="M100.027 146.72l-8.92 18.378-12.703 7.84s5.54 4.73 5.677 15.813l14.596-9.594 4.19-17.57s6.474-10.78 6.886-11.812c.41-1.025 2.168-7.65 1.627-8.866-.54-1.217-8.108 1.758-8.108 1.758l-3.245 4.054z"/><g opacity=".28" clip-path="url(#d)"><defs><path id="u" d="M83.706 140.615h27.776v48.135H83.706z"/></defs><clipPath id="v"><use xlink:href="#u" overflow="visible"/></clipPath><path clip-path="url(#v)" fill="#231F20" d="M111.38 140.908c-.54-1.217-8.108 1.757-8.108 1.757l-.552.688c.137 2.404.28 4.447.28 4.447l-6.105 23.824-2.95-3.688c.99 1.896 1.976 3.835 2.597 5.065l-.024.096c-1.46-2.473-5.41-7.32-5.41-7.32l5.023 8.287-.007.573c-1.675-2.367-6.096-6.565-6.096-6.565 1.74 2.397 4.617 6.888 5.673 8.55-.255.522-.67 1.026-1.35 1.318l-10.645 6.407c.213 1.344.356 2.8.375 4.404l14.596-9.596 4.188-17.57s6.475-10.78 6.887-11.812c.414-1.024 2.17-7.65 1.63-8.864"/></g><path clip-path="url(#d)" fill="#002C3F" d="M117.73 162.937l-13.108 40.545-10.63 7.884s-.045-37.075 12.117-53.564c12.162-16.487 10.677-7.84 10.677-7.84l.944 12.975z"/><path clip-path="url(#d)" fill="#002C3F" d="M157.06 191.362l-10.09-10.27s-10.27-1.262-11.713-1.262c-1.443 0-16.397 2.522-18.02 3.966-1.62 1.44-14.236 19.822-14.236 19.822l-9.007 7.747s9.13-2.397 30.018-3.625l.796-3.404 1.134 3.29c10.175-.54 22.978-.803 38.687-.407l-7.566-15.858z"/><path clip-path="url(#d)" fill="#CADEDD" d="M103 168.66l.54 17.296h45.05l.18-11.71-2.702-21.986-12.073-6.306s-5.586.54-6.127.72c-.54.177-8.47.903-9.01 1.08-.54.18-9.008 2.344-9.19 3.606-.18 1.26-6.846 12.613-6.846 12.613l.18 4.686z"/><path clip-path="url(#d)" fill="#889798" d="M111.83 150.278c.045-.075.062-.19.066-.327-1.24.5-2.17 1.004-2.227 1.41-.18 1.26-6.848 12.613-6.848 12.613l.18 4.686.252 8.057 6.596-18.33s1.44-7.21 1.98-8.11"/><g opacity=".47" clip-path="url(#d)"><defs><path id="w" d="M103.902 144.15h26.31v17.303H103.9z"/></defs><clipPath id="x"><use xlink:href="#w" overflow="visible"/></clipPath><path clip-path="url(#x)" fill="#355A57" d="M129.85 146.854s-.18 2.524-1.262 4.146c-1.08 1.62-.18 3.063-.18 3.063l1.263 1.44-2.342.36 2.883 1.08-5.405.723 1.8 1.44-5.765-1.082 1.08 1.803-5.224-1.44 1.62 1.982-4.25-1.69 1.008 1.87-3.064-1.084.54 1.986-4.683-1.805-3.965-.182s3.604-5.583 3.063-5.945c-.54-.36 5.766-3.965 7.57-4.863 1.8-.904 8.828-3.244 9.55-3.606.72-.358 5.404-.9 5.404-.9l.36 2.704z"/></g><g opacity=".47" clip-path="url(#d)"><defs><path id="y" d="M113.648 154.642h31.58V175.3h-31.58z"/></defs><clipPath id="z"><use xlink:href="#y" overflow="visible"/></clipPath><path clip-path="url(#z)" fill="#355A57" d="M113.648 158.274l3.13 3.25 6.713 8.327 2.252 1.947s5.44 4.295 15.947 3.37c10.508-.922-5.73-6.008-5.73-6.008l-13.662-5.542-2.452-2.358-.502-.99 2.158-5.63-3.194.48"/></g><path clip-path="url(#d)" fill="#EB9C30" d="M140.252 160.22c-11.023 12.76-21.147-.645-21.147-.645l1.61-4.356-5.048-3.107c-.256.677-.568 1.352-.944 1.955 0 0 .177.93 1.827.674 0 0-1.765.56-2.477.33 0 0 1.192 1.273 2.23 1 0 0-1.653.64-2.75.517-.03-.014-.063-.03-.09-.053h-.188c-.06-.02-.117-.036-.17-.06 0 0 .057.023.158.06-.38-.008-1.185-.023-1.35-.082-.14-.055.726.49 1.68.938-.34.033-.693.043-1.05.02l3.48 2.652c6.587 19.392 28.68 12.977 28.68 12.977l6.786-8.218-11.238-4.603z"/><path clip-path="url(#d)" fill="#CADEDD" d="M125.706 149.197l9.55 10.27s7.568-8.467 7.93-9.37c.36-.9 5.404-9.188 4.685-9.73-.72-.54-2.344-1.62-3.425-2.162-1.08-.54-4.144-.18-5.765 0-1.622.18-6.307 1.443-6.848 1.623s-7.39 7.566-7.39 7.566l1.264 1.803z"/><g opacity=".47" clip-path="url(#d)"><defs><path id="A" d="M124.444 140.26h23.497v21.55h-23.496z"/></defs><clipPath id="B"><use xlink:href="#A" overflow="visible"/></clipPath><path clip-path="url(#B)" fill="#355A57" d="M125.706 151.54l9.55 10.27s7.568-8.467 7.93-9.37c.36-.9 5.404-9.19 4.685-9.73-.72-.54-2.344-1.622-3.425-2.162-1.08-.54-4.144-.18-5.765 0-1.622.18-6.307 1.44-6.848 1.62-.54.182-7.39 7.57-7.39 7.57l1.264 1.802z"/></g><path clip-path="url(#d)" fill="#CADEDD" d="M125.706 149.197l9.55 10.27s7.568-8.467 7.93-9.37c.36-.9 5.404-9.188 4.685-9.73-.72-.54-2.344-1.62-3.425-2.162-1.08-.54-4.144-.18-5.765 0-1.622.18-6.307 1.443-6.848 1.623s-7.39 7.566-7.39 7.566l1.264 1.803z"/><path clip-path="url(#d)" fill="#889798" d="M142.866 150.59c.16-.225.28-.402.318-.49.36-.903 5.405-9.192 4.686-9.734-.723-.54-2.345-1.62-3.425-2.16-1.082-.542-4.144-.18-5.767 0-1.622.18-6.306 1.44-6.847 1.62-.47.157-5.75 5.81-7.083 7.24-1.735.188-3.767.397-4.942.543-.148 1.985.673 5.553.673 5.553l5.045 1.263 2.885-.36 2.162-7.21 5.946-2.343.405 5.18-3.828-.313s2.685 19.28 7.89 36.578h7.608l.18-11.71-2.7-21.986-3.204-1.673z"/><path clip-path="url(#d)" fill="#206590" d="M108.588 157.305s-12.435 25.228-14.596 54.06c0 0-.54-34.42 9.37-58.744 9.91-24.326 5.947 1.265 5.947 1.265l-.722 3.42z"/><path clip-path="url(#d)" fill="none" stroke="#E2C53E" stroke-width=".208" stroke-dasharray="0.624,0.624" d="M107.555 155.968s-11.717 22.104-13.34 51.703"/><path clip-path="url(#d)" fill="#002C3F" d="M152.914 116.558s17.883 2.276 15.25 6.534c0 0-6.623 7.634-6.758 7.68-.135.045-2.747.564-4.706.54-1.96-.022-6.31-.18-8.56-.157-2.255.023-4.98-1.465-5.59-2.006-.606-.54.184-5.472.297-5.99.11-.52 10.067-6.602 10.067-6.602"/><path clip-path="url(#d)" fill="#EB9C30" d="M101.018 237.045l-3.095 5.976-6.067.293 1.69-7.472s6.213-.24 5.942-.147c-.27.087 1.53 1.352 1.53 1.352"/><path clip-path="url(#d)" fill="#AEB0B5" d="M113.474 101.47s-3.01-22.35-4.17-27.547c-1.16-5.196-1.633-8.832-1.633-8.832s-8.497 3.912-12.422 3.8c-3.93-.108 1.805-7.204 4.604-10.192 4.64-4.952 8.988-7.13 12.75-3.053 3.76 4.077 3.77 33.267 2.04 43.48l-1.168 2.345z"/><path clip-path="url(#d)" fill="#BFCFD7" d="M113.008 100.164l1.15-.893-3.247-35.145c-.757.374-3.238.965-3.238.965s.472 3.637 1.632 8.832c.908 4.066 2.666 23.302 3.704 26.242"/><path clip-path="url(#d)" fill="#00455D" d="M116.267 116.833s-5.477.29-7.16-1.488c-1.683-1.78-2.945-5.342-3.095-7.217-.184-2.31 2.164-3.638 4.123-5.413 1.9-1.722 4.514-2.794 7.356-3.02.727-.06 1.457-.06 2.168-.003 5.068.396 8.976 3.613 9.3 7.645.18 2.31-.797 4.565-2.756 6.34-1.902 1.72-4.517 2.792-7.358 3.02-.723.056-2.577.136-2.577.136"/><path clip-path="url(#d)" fill="#227AB0" d="M108.054 111.963c.396.783.802 1.96 1.313 2.5 1.517 1.6 6.31 1.362 6.31 1.362s1.67-.072 2.323-.124c2.554-.202 1.358.962 3.07-.586.432-.39 1.756-2.078 2.08-2.516l-15.096-.635z"/><path clip-path="url(#d)" fill="#B1B4BB" d="M120.883 108.922l-15.005 25.49s11.744 11.834 13.443 11.305c1.692-.526 8.123-.05 8.123-.05s15.505-6.712 18.082-7.283l7.608-9.3L148 101.75s-18.99 1.968-19.557 2.145c-.565.175-7.56 5.027-7.56 5.027"/><path clip-path="url(#d)" fill="#BFCFD7" d="M126.235 106.278s-.367-.43-.88-.97c-1.527 1.042-2.834 1.946-2.834 1.946l-9.886 16.797c.228.33.517.54.92.57 1.478.118 5.512-.722 5.512-.722l8.934-12.69-1.765-4.93z"/><g opacity=".3" clip-path="url(#d)"><defs><path id="C" d="M121.784 101.75h30.31v22.6h-30.31z"/></defs><clipPath id="D"><use xlink:href="#C" overflow="visible"/></clipPath><path clip-path="url(#D)" fill="#231F20" d="M152.093 124.35L148 101.75s-18.99 1.97-19.557 2.146c-.353.11-3.212 2.042-5.312 3.478-.812 1.305-1.346 2.24-1.346 2.24s4.135 7.12 10.715 9.813c1.574.645 13.053 3.56 19.593 4.924"/></g><path clip-path="url(#d)" fill="#00455D" d="M131.542 117.023c-3.868-.67-7.7-5.827-7.7-5.827s-.72-6.362 1.28-8.172c1.925-1.748 4.573-2.836 7.452-3.064.735-.058 1.47-.06 2.194-.002 5.146.404 9.118 3.68 9.447 7.798.187 2.362-.082 6.394-2.58 8.498-2.333 1.973-9.034.975-10.093.77"/><path clip-path="url(#d)" fill="#00455D" d="M125.43 112.9c-1.114-1.718-5.044-2.372-6.308-.793-1.264 1.58-1.896-4.105-1.896-4.105l7.65.374.553 4.524z"/><path clip-path="url(#d)" fill="#227AB0" d="M126.324 112.965c1.37 1.392 3.38 3.07 5.404 3.42.977.19 7.17 1.114 9.33-.708 1.022-.862 1.64-2.072 1.997-3.344l-16.73.632z"/><path clip-path="url(#d)" fill="#6C767C" d="M151.64 104.614s4.67 2.24 6.506 4.147l-4.556-.91s3.35 2.25 4.342 3.65l-4.02-.756s4.426 3.983 4.61 4.44c.187.455-5.955.083-5.955.083l3.446 5.23-3.717 5.22-4.892-23.308 3.132-1.46 1.104 3.664z"/><path clip-path="url(#d)" fill="#C77828" d="M160.15 93.242s-3.765-3.163-11.343-3.228l1.454 7.732 10.118.437-.228-4.94z"/><path clip-path="url(#d)" fill="#E6B033" d="M109.997 97.316s-5.352 1.002-7.765 2.94c-2.263 1.815-4.332 5.04 1.577 7.076 3.164 1.088 16.08 4.528 28.64 3.306 12.454-1.21 18.49-3.55 23.044-5.898 4.813-2.488 5.692-4.766 5.58-6.578-.112-1.81-3.042-1.867-6.06-2.827-3.02-.96-4.718-1.617-4.718-1.617l-40.3 3.598z"/><path clip-path="url(#d)" fill="#FEC133" d="M109.997 97.316s-5.352 1.002-7.765 2.94c-2.263 1.815-4.332 5.04 1.577 7.076 3.164 1.088 16.08 4.528 28.64 3.306 12.454-1.21 18.49-3.55 23.044-5.898 4.813-2.488 5.692-4.766 5.58-6.578-.112-1.81-3.042-1.867-6.06-2.827-3.02-.96-4.718-1.617-4.718-1.617l-40.3 3.598z"/><path clip-path="url(#d)" fill="#EB9C30" d="M161.075 98.163c-.113-1.81-3.043-1.867-6.06-2.828-3.023-.96-4.72-1.616-4.72-1.616l-39.44 3.52-.26 3.486 8.354 9.717c4.212.463 8.88.646 13.5.196 12.454-1.212 18.49-3.55 23.044-5.9 4.814-2.49 5.693-4.765 5.58-6.577"/><path clip-path="url(#d)" fill="#E5CF78" d="M157.403 103.154c-.31.176-.636.354-.98.536-4.554 2.35-10.588 4.687-23.043 5.9-12.563 1.22-25.478-2.22-28.643-3.31-2.217-.762-3.313-1.693-3.695-2.657-.097-.245-.142-.49-.15-.737-.026.338.017.677.15 1.012.382.962 1.473 1.895 3.693 2.66 3.164 1.088 16.08 4.527 28.643 3.305 12.454-1.21 18.49-3.548 23.042-5.9.348-.178.67-.356.98-.533l.003-.276z"/><path clip-path="url(#d)" fill="#FEC133" d="M153.58 101.63s-2.105-16.99-2.624-19.342c-.52-2.352-.813-4.924-3.232-6.163-2.423-1.24-3.404-2.163-8.67-1.814-5.273.347-11.587 1.946-11.587 1.946s-1.746-1.06-3.27-1.683c-1.526-.622-2.243-.8-2.877-.416-.633.387-1.32 1.86-1.873 3.16-.548 1.303-5.74 13.136-6.656 15.39-.922 2.254-2.05 8.03-2.05 8.03l42.84.894z"/><path clip-path="url(#d)" fill="#EB9C30" d="M150.955 82.288c-.52-2.352-.812-4.923-3.23-6.163-2.425-1.24-3.404-2.162-8.673-1.814-5.27.348-11.585 1.946-11.585 1.946s-.01-.008-.03-.02l-6.156 25.957 32.3-.562s-2.105-16.99-2.625-19.342"/><path clip-path="url(#d)" fill="#3284C1" d="M112.152 93.53s9.025 1.73 17.628 1.803c9.09.08 17.736-.282 22.75-2.327 0 0 1.41 3.32 1.6 7.585 0 0-4.973 2.395-15.332 3.177-10.05.758-15.75.038-21.596-.97-5.09-.878-7.004-1.888-7.45-2.064-.452-.18 2.4-7.203 2.4-7.203"/><path clip-path="url(#d)" fill="#EB9C30" d="M127.466 76.256s-4.258-1.777-5.344-1.09c-1.085.687-1.914 2.942 5.344 1.09"/><path clip-path="url(#d)" fill="#479CD6" d="M141.665 94.886s.977 5.113 1.006 8.652l4.566-.715s.155-3.886-1.187-8.365l-4.385.428z"/><path clip-path="url(#d)" fill="#D28B2A" d="M147.484 108.005c3.44-1.078 6.284-2.215 8.01-3.265 4.627-2.82 5.692-4.765 5.58-6.577-.076-1.267.573-3.156-.924-4.92.986 6.186-11.403 14.1-12.666 14.762"/><path clip-path="url(#d)" fill="#479CD6" d="M135.057 100.3c.12.007.21.006.25-.008.073-.025-.03-.02-.25.007"/><path clip-path="url(#d)" fill="#AEB0B5" d="M145.777 103.68s-.21-24.598-.524-30.57c-.316-5.972-.7-8.85-.7-8.85s-13.23 2.787-14.443.798c-.874-1.427 4.79-6.087 8.483-8.687 4.904-3.448 11.056-6.637 14.106-1.92 1.913 2.962.803 11.008-.17 19.4-.817 7.103-.944 25.206-2.817 30.236 0 0-1.61.885-2.36.703-.745-.18-1.576-1.11-1.576-1.11"/><path clip-path="url(#d)" fill="#BFCFD7" d="M149.864 74.136c.17-4.03-.118-7.693-.544-11.592-1.83.74-4.5 1.61-4.79 1.715-.025.792.45 3.69.723 8.85.315 5.972.47 30.51.47 30.51s.885.99 1.63 1.17c.035.008.067.006.1.01.66-2.105 2.224-26.275 2.41-30.664"/><path clip-path="url(#d)" fill="#64ADCF" d="M125.894 131.854l.008-.004c-.488-1.172.382-2.504.382-2.504l-.024.007c.34-.54.56-1.166.61-1.845.18-2.268-1.538-4.253-3.84-4.435-.977-.075-1.903.19-2.657.694l-.013-.01c-.018.024-.042.04-.07.06-.073.053-.143.11-.212.165-.812.522-1.812.204-1.812.204l-.03.018c-5.294-1.652-11.044-.116-11.044-.116-1.205.172-2.362-.21-3.097-.546-.23-.15-.48-.284-.744-.388l-.047-.03-.008.01c-.37-.144-.768-.238-1.185-.27-2.3-.18-4.31 1.51-4.485 3.78-.125 1.6.693 3.054 1.994 3.84 1.17.9.45 2.023.45 2.023l.03.01c-.145.302-.22.477-.22.477l-2.41 5.43c-2.515 6.22 3.405 5.54 3.405 5.54l1.752 5.995.84 1.94c-3.028 2.075-.094 5.393-.094 5.393-.535-1.587.654-2.707.654-2.707-1.26 2 .846 3.268.846 3.268-.47-1.032.315-2.624.315-2.624-.71 2.04 1.073 3.17 1.073 3.17-.483-.805-.235-2.55-.235-2.55.236 2.55 2.093 2.81 2.093 2.81-.818-.837-.563-2.69-.563-2.69.14 2.436 2.742 2.972 2.742 2.972-.722-.61-1.108-2.735-1.108-2.735.412 1.798 2.17 1.82 2.17 1.82-.95-.51-1.487-2.097-1.487-2.097 2.018 2.362 4.193 2.752 4.193 2.752-.86-.284-1.68-2.443-1.68-2.443l1.908.92-.655-.77c.6.546 2.315.68 2.315.68l-.73-.498c.73.497 2.787.99 2.787.99-.97-.294-1.633-1.672-1.633-1.672 3.137 2.124 6.428.947 6.428.947-.54-.15-2.003-1.15-2.003-1.15 2.003 1.15 5.064.065 5.064.065-1.335.116-2.824-.55-2.824-.55 1.06.527 3.44-.282 3.44-.282-1.12.244-2.335-1.174-2.335-1.174.75.28 2.667-.23 2.667-.23-1.78.19-1.925-.814-1.925-.814 1.87-2.717 2.525-6.854 2.525-6.854.703-6.286-.172-10.802-1.523-13.994"/><path clip-path="url(#d)" fill="#A5B1BB" d="M111.36 158.025c-.95-.51-1.486-2.1-1.486-2.1 2.017 2.364 4.192 2.754 4.192 2.754-.86-.285-1.68-2.444-1.68-2.444l1.91.922-.657-.77c.6.546 2.316.68 2.316.68l-.73-.498c.73.497 2.786.99 2.786.99-.97-.294-1.633-1.673-1.633-1.673 3.138 2.124 6.428.95 6.428.95-.54-.15-2.003-1.15-2.003-1.15 2.003 1.15 5.064.064 5.064.064-1.335.116-2.823-.55-2.823-.55 1.06.527 3.438-.28 3.438-.28-1.12.242-2.334-1.176-2.334-1.176.75.28 2.667-.23 2.667-.23-1.78.19-1.924-.814-1.924-.814 1.87-2.717 2.524-6.855 2.524-6.855.307-2.738.31-5.145.11-7.25-.46.936-1.378 2.29-1.378 2.29s-3.325 4.49-3.506 4.696c-.183.208-1.815 1.347-1.815 1.347l-7.653-.104-7.632-1.04-4.06.267 1.142 3.91.84 1.94c-3.028 2.075-.094 5.394-.094 5.394-.535-1.588.654-2.707.654-2.707-1.258 2 .846 3.267.846 3.267-.47-1.032.315-2.624.315-2.624-.71 2.04 1.073 3.17 1.073 3.17-.483-.806-.235-2.55-.235-2.55.236 2.55 2.093 2.81 2.093 2.81-.818-.837-.563-2.69-.563-2.69.14 2.436 2.742 2.972 2.742 2.972-.722-.61-1.107-2.735-1.107-2.735.412 1.796 2.17 1.818 2.17 1.818"/><path clip-path="url(#d)" fill="#808A92" d="M126.148 140.885s1.09 4.933-4.922 7.568c0 0-4.923 2.458-12.248.403 0 0-1.93-1.69-1.945-1.866-.017-.176.073-2.403.18-2.656.107-.253 2.196-.988 2.196-.988l4.18-.02 7.495-.806 5.063-1.635z"/><path clip-path="url(#d)" fill="#E9E8D3" d="M124.214 143.033c-5.22 4.647-14.87 1.326-14.87 1.326-.92-.52-1.772-.863-2.558-1.09-.394.175-.653.298-.657.324-.008.11 3.227 4.882 3.227 4.882 5.558.793 8.21.345 8.21.345 7.65-1.593 8.062-6.437 8.073-7.264-.776.95-1.426 1.477-1.426 1.477"/><path clip-path="url(#d)" fill="#C1C3CC" d="M109.396 146.192c-.04.273-.178 1.217-.286 1.92l.247.365c.376.056.74.1 1.09.143v-.002c-.462-.062-.403-.473-.403-.473l-.017-3.577c-.23-.066-.407-.118-.52-.156-.028.637-.072 1.523-.11 1.78M112.898 148.86c.34.02.655.04.96.056-.143-.027-.338-.122-.31-.465l-.056-3.158c-.09-.015-.185-.027-.273-.04h-.002l.048 3.228s-.025.315-.368.38M116.547 148.463s.096.368-.253.46c.41-.015.723-.042.934-.062l.007-.01s-.418.048-.41-.42l-.167-2.924h-.28l.17 2.957zM119.855 147.73s.16.32-.13.492c.284-.098.552-.204.807-.313-.114.02-.365.02-.43-.336l-.592-2.343c-.094.02-.19.036-.28.054l.625 2.447z"/><path clip-path="url(#d)" fill="#EFCCA5" d="M123.55 145.954s-.26.24-.454-.185l-.78-1.467c-.087.043-.172.087-.258.127l.836 1.55s.268.31-.05.552l.02.036c.253-.196.48-.397.688-.6l-.002-.014"/><path clip-path="url(#d)" fill="#E9E8D3" d="M109.74 143.604s-1.86-2.324-2.186-2.348c-.33-.027-7.175-1.28-7.412-.362-.237.918.733 3.07.733 3.07l-.877 5.074s-.216.645.713.715l2.408.205-.002-.007s.734.102.862-.642l.224.02s-.05.756.768.792l3.43.345s1.17.178 1.35-.69l-.01-6.17z"/><path clip-path="url(#d)" fill="#C1C3CC" d="M124.214 143.033c-4.59 4.09-12.61 2.012-14.474 1.45v-.88s-1.86-2.325-2.186-2.35c-.33-.026-7.175-1.28-7.412-.36-.237.916.734 3.07.734 3.07l-.215 1.245c.944-.496 4.42-1.923 9.763.67 0 0 6.243 1.88 11.97 1.03 3.018-2.053 3.238-4.753 3.247-5.353-.776.952-1.426 1.478-1.426 1.478"/><path clip-path="url(#d)" fill="#C3DBE4" d="M109.343 144.36s9.65 3.32 14.87-1.327c0 0 2.14-1.716 3.296-4.602-.27-2.644-.872-4.815-1.616-6.577l.008-.004c-.488-1.173.382-2.505.382-2.505l-.024.007c.338-.54.56-1.166.61-1.845.18-2.268-1.54-4.253-3.84-4.435-.977-.075-1.903.19-2.657.694l-.013-.01c-.018.024-.042.04-.07.06-.073.053-.143.11-.213.165-.812.523-1.812.205-1.812.205l-.028.018c-5.295-1.652-11.045-.115-11.045-.115-1.205.17-2.362-.21-3.097-.546-.23-.152-.48-.285-.744-.39-.03-.017-.047-.03-.047-.03l-.008.01c-.37-.143-.768-.236-1.185-.27-2.3-.18-4.31 1.513-4.485 3.78-.125 1.6.693 3.055 1.994 3.84 1.17.902.45 2.024.45 2.024l.028.01c-.143.302-.217.477-.217.477l-2.41 5.43c-2.515 6.22 3.405 5.54 3.405 5.54s3.173-2.582 8.468.396"/><path clip-path="url(#d)" fill="#C1C3CC" d="M109.343 144.36s9.65 3.32 14.87-1.327c0 0 2.14-1.716 3.296-4.602-.27-2.644-.872-4.815-1.616-6.577l.008-.004c-.488-1.173.382-2.505.382-2.505l-.024.007c.338-.54.56-1.166.61-1.845.18-2.268-1.54-4.253-3.84-4.435-.977-.075-1.903.19-2.657.694l-.013-.01c-.018.024-.042.04-.07.06-.073.053-.143.11-.213.165-.812.523-1.812.205-1.812.205l-.028.018c-5.295-1.652-11.045-.115-11.045-.115-1.205.17-2.362-.21-3.097-.546-.23-.152-.48-.285-.744-.39-.03-.017-.047-.03-.047-.03l-.008.01c-.37-.143-.768-.236-1.185-.27-2.3-.18-4.31 1.513-4.485 3.78-.125 1.6.693 3.055 1.994 3.84 1.17.902.45 2.024.45 2.024l.028.01c-.143.302-.217.477-.217.477l-2.41 5.43c-2.515 6.22 3.405 5.54 3.405 5.54s3.173-2.582 8.468.396"/><path clip-path="url(#d)" fill="#C1C3CC" d="M126.34 125.154c-.663-1.15-1.87-1.968-3.31-2.08-.977-.077-1.903.188-2.657.692l-.013-.01c-.018.024-.042.04-.07.062-.073.05-.143.107-.213.163-.812.523-1.812.205-1.812.205l-.028.018c-5.295-1.652-11.045-.115-11.045-.115-1.205.17-2.362-.21-3.097-.546-.23-.152-.48-.284-.744-.39-.03-.017-.047-.03-.047-.03l-.008.01c-.37-.143-.768-.236-1.185-.268-.195-.016-.385-.012-.577-.002-1.178 1.493-2.503 3.4-3.704 5.402.313.926.95 1.71 1.79 2.22 1.17.9.45 2.022.45 2.022l.028.01c-.143.302-.217.477-.217.477l-2.41 5.43c-.42 1.042-.6 1.888-.614 2.578 1.072 1.16 2.376 2.157 3.576 2.986.27-.005.443-.022.443-.022s3.173-2.582 8.468.396c0 0 1.742.6 4.15.933-2.035-13.067 3.272-16.814 3.272-16.814l1.198.203c1.73-6.59 8.378-3.528 8.378-3.53z"/><path clip-path="url(#d)" fill="#DAE3E5" d="M116.766 128.48s5.676 3.53 3.852 15.51l-10.878-.386s-.593-2.278-.51-3.375c.09-1.095 1.545-5.61 2.54-7.076.998-1.464 4.996-4.675 4.996-4.675"/><path clip-path="url(#d)" fill="#808A92" d="M125.894 131.854l.008-.004c-.488-1.172.382-2.504.382-2.504l-.024.007c.34-.54.56-1.166.61-1.845.07-.85-.132-1.66-.53-2.352 0 0-6.564-1.29-6.32 4.017 0 0 2.402 2.576 6.587 4.664-.216-.71-.455-1.373-.713-1.983"/><path clip-path="url(#d)" fill="#00455D" d="M124.364 128.026c-.093 1.203-1.183 2.098-2.43 2-1.247-.097-2.182-1.152-2.086-2.353.095-1.203 1.18-2.1 2.43-2 1.25.098 2.18 1.153 2.086 2.353"/><path clip-path="url(#d)" fill="#DAE3E5" d="M105.604 140.11s-.97-14.195 7.064-16.67c-3.1.015-5.476.648-5.476.648s-3.99.685-7.093 8.428c-.145.302-.22.477-.22.477l-2.41 5.43c-2.515 6.22 3.405 5.54 3.405 5.54s3.173-2.582 8.468.396c0 0 9.65 3.32 14.87-1.327 0 0-12.132 3.042-18.61-2.924"/><path clip-path="url(#d)" fill="#DAE3E5" d="M119.31 124.26c-.567.077-1.044-.074-1.044-.074l-.03.018c-5.294-1.652-11.044-.116-11.044-.116-.127.02-.252.028-.376.033-.586.907-1.146 1.806-1.58 2.46-1.253 1.885-2.28 7.974.964 3.16 3.243-4.814 13.092-5.362 13.092-5.362l.017-.12z"/><path clip-path="url(#d)" fill="#DAE3E5" d="M107.88 126.568s5.587-.994 10.083 2.114c0 0-9.635-2.19-12.58.224l2.497-2.338z"/><path clip-path="url(#d)" fill="#FFEB97" d="M98.734 45.642C97.39 58.242 85.378 74.014 72.78 72.67c-12.6-1.344-21.013-19.298-19.67-31.896 1.346-12.6 12.648-21.722 25.247-20.378 12.598 1.345 21.723 12.647 20.377 25.246"/><path clip-path="url(#d)" fill="#FFEB97" d="M71.892 71.814l-2.302 4.18 4.602.492s-.24-6.85-.203-6.932c.037-.082-2.133 2.313-2.098 2.26"/><path clip-path="url(#d)" fill="#FFEB97" d="M74.302 72.072l1.368 4.572-4.603-.49s1.682-6.647 1.66-6.735c-.018-.088 1.597 2.712 1.575 2.652"/><path clip-path="url(#d)" fill="#FFF" d="M59.943 40.49c-1.178-.328-1.866-1.546-1.54-2.724 2.08-7.377 7.672-10.28 7.918-10.415h.003c1.085-.56 2.418-.133 2.98.953.56 1.083.135 2.417-.95 2.978h-.003c-.016.012-.052.033-.103.062-.1.058-.26.16-.465.298-.407.282-.99.73-1.623 1.35-1.268 1.252-2.72 3.18-3.494 5.96-.323 1.163-1.514 1.85-2.677 1.552-.014-.005-.032-.008-.047-.013"/><path clip-path="url(#d)" fill="#FFEB97" d="M61.34 65.41c3.992 11.718-.166 30.638-11.88 34.628-11.72 3.992-26.56-8.457-30.55-20.173-3.994-11.717 2.27-24.45 13.99-28.443 11.714-3.99 24.448 2.272 28.44 13.99"/><path clip-path="url(#d)" fill="#FFEB97" d="M48.32 99.645l-.32 4.652 4.28-1.456s-3.03-5.973-3.033-6.062c.003-.087-.935 2.93-.928 2.867"/><path clip-path="url(#d)" fill="#FFEB97" d="M50.56 98.88l3.096 3.492-4.283 1.457s-1.244-6.582-1.3-6.652c-.05-.07 2.532 1.747 2.488 1.703"/><path clip-path="url(#d)" fill="#FFF" d="M24.847 76.8c-1.177.196-2.29-.6-2.486-1.778-1.19-7.392 2.572-12.265 2.733-12.486l.002-.002c.73-.944 2.087-1.113 3.03-.382.943.73 1.117 2.087.387 3.03h-.002l-.068.098c-.065.093-.165.248-.29.457-.245.416-.578 1.052-.88 1.863-.61 1.63-1.105 3.935-.645 6.718.192 1.163-.582 2.26-1.734 2.476-.015 0-.03.006-.046.007"/><path clip-path="url(#d)" fill="#8F662F" d="M103.542 185.956l-.54 7.93-14.416 40.543 21.084.9 11.17-31.353h6.308l-.36 32.435 21.443.36 2.705-47.933-2.344-2.884"/><path clip-path="url(#d)" fill="#5E4215" d="M143.186 192.264s3.42 14.055 3.963 15.678l-.36 10.45h-4.868l4.506 1.803-2.7.36 2.7 1.623s-.814 11.146-1.028 14.546l2.833.05 2.703-47.935-2.344-2.885h-.837c-2.956 1.323-5.47 2.525-5.47 2.525s1.26 3.604.9 3.784"/><g opacity=".28" clip-path="url(#d)"><defs><path id="E" d="M107.48 201.813h25.253v34.633H107.48z"/></defs><clipPath id="F"><use xlink:href="#E" overflow="visible"/></clipPath><path clip-path="url(#F)" fill="#231F20" d="M107.866 233.89l-.387 1.348 2.19.09 11.17-31.35h6.308l-.36 32.434 1.984.035c.02-4.135.177-32.11.177-32.11l3.783-1.802-12.435-.72-12.432 32.074z"/></g><path clip-path="url(#d)" fill="#5E4215" d="M148.59 185.956h-7.385v8.288h9.424l.304-5.405-2.343-2.884zm-38.56 8.288h28.11v-8.288h-28.11v8.288zm-7.03-.358l-.126.358h4.092v-8.288h-3.425l-.54 7.93z"/><path clip-path="url(#d)" fill="#FFFBDA" d="M129.846 193.496c.004.432-.342.783-.772.79l-10.73.116c-.432.002-.784-.346-.788-.773l-.075-6.818c-.002-.43.344-.784.773-.79l10.732-.113c.43-.005.78.34.786.77l.076 6.816z"/><path clip-path="url(#d)" fill="#FFD250" d="M129.846 193.527c.004.412-.337.752-.762.76l-10.583.113c-.425.002-.772-.332-.777-.743l-.07-6.578c-.004-.416.337-.757.762-.76l10.585-.113c.422-.006.77.33.774.743l.072 6.577z"/><path clip-path="url(#d)" fill="#FFF79E" d="M118.415 186.32c-.425.003-.766.344-.76.76l.068 6.577c.003.238.122.447.302.584l6.483-7.985-6.093.064z"/><path clip-path="url(#d)" fill="#5E4215" d="M127.552 192.256c0 .27-.213.493-.485.497l-6.75.073c-.27.002-.493-.217-.494-.487l-.047-4.288c-.003-.27.215-.495.483-.497l6.75-.07c.27-.003.492.215.496.485l.046 4.286z"/><path transform="rotate(179.19 122.876 190.164)" clip-path="url(#d)" fill="#7B5827" d="M121.126 187.526h3.487v5.273h-3.487z"/><path clip-path="url(#d)" fill="#AD762C" d="M121.833 192.824l.932-.067.027-5.268-.933.066"/><path transform="rotate(1.403 99.083 234.594)" clip-path="url(#d)" fill="#A56D2F" d="M84.894 230.914h27.03v6.85h-27.03z"/><path transform="rotate(1.403 136.802 236.668)" clip-path="url(#d)" fill="#A56D2F" d="M122.913 233.618h27.03v6.848h-27.03z"/><path clip-path="url(#d)" fill="#206590" d="M92.527 241.15s-15.143 4.387-21.506 10.973h15.656s3.144-1.462 6.143-1.975l-.004 2.082h6.557l1.036-2.702s1.736-6.075-2.103-8.012l-.136 1.04-5.385-.054-.258-1.353z"/><g opacity=".62" clip-path="url(#d)"><defs><path id="G" d="M80.807 245.172h5.736v2.906h-5.736z"/></defs><clipPath id="H"><use xlink:href="#G" overflow="visible"/></clipPath><g clip-path="url(#H)"><defs><path id="I" d="M86.543 248.078c-.794-1.712-4.104-2.74-4.678-2.906-.35.16-.703.325-1.058.497 2.365.38 5.736 2.408 5.736 2.408"/></defs><clipPath id="J"><use xlink:href="#I" overflow="visible"/></clipPath><linearGradient id="K" gradientUnits="userSpaceOnUse" y1="282.408" x2="1" y2="282.408" gradientTransform="matrix(5.736 0 0 -5.736 80.81 1866.46)"><stop offset="0" stop-color="#8E662F"/><stop offset=".126" stop-color="#8E662F"/><stop offset=".809" stop-color="#733B19"/><stop offset="1" stop-color="#733B19"/></linearGradient><path clip-path="url(#J)" fill="url(#K)" d="M80.807 245.172h5.736v2.906h-5.736z"/></g></g><g opacity=".62" clip-path="url(#d)"><defs><path id="L" d="M71.02 248.902h29.537v3.328H71.02z"/></defs><clipPath id="M"><use xlink:href="#L" overflow="visible"/></clipPath><g clip-path="url(#M)"><defs><path id="N" d="M93.48 248.904c-2.344-.072-7.172 1.83-7.172 1.83h-13.78c-.54.45-1.05.912-1.507 1.39h15.656s3.144-1.463 6.143-1.976l-.004 2.082h6.557l1.036-2.702s.066-.236.146-.624H93.48z"/></defs><clipPath id="O"><use xlink:href="#N" overflow="visible"/></clipPath><linearGradient id="P" gradientUnits="userSpaceOnUse" y1="282.408" x2="1" y2="282.408" gradientTransform="matrix(0 3.328 3.328 0 -854.125 248.902)"><stop offset="0" stop-color="#8E662F"/><stop offset=".126" stop-color="#8E662F"/><stop offset=".809" stop-color="#733B19"/><stop offset="1" stop-color="#733B19"/></linearGradient><path clip-path="url(#O)" fill="url(#P)" d="M71.02 248.832h29.536v3.398H71.02z"/></g></g><path clip-path="url(#d)" fill="#206590" d="M172.556 184.695s-.145-.23-.396-.672l3.1-4.015c.9-1.8-.538-3.783-.538-3.783L164.09 143.07l-1.98-.99c1.254-2.834 5.358-12.493 6.122-19.192 0 0-6.126 7.208-31.173 6.487l2.16 18.562h-4.505s6.67 48.112 30.093 65.05c0 0 17.84-2.882 28.47-18.38-.002 0-14.776-3.065-20.722-9.912"/><g opacity=".28" clip-path="url(#d)"><defs><path id="Q" d="M139.042 165.905h12.792v9.782h-12.792z"/></defs><clipPath id="R"><use xlink:href="#Q" overflow="visible"/></clipPath><path clip-path="url(#R)" fill="#231F20" d="M140.482 165.955c-.304.1-.89.937-1.44 1.75.703 2.506 1.504 5.145 2.412 7.847 1.546.054 3.53.135 3.53.135l6.85-9.37-3.425-.18s-7.387-.36-7.928-.182"/></g><g opacity=".28" clip-path="url(#d)"><defs><path id="S" d="M166.068 183.922h9.904v7.983h-9.904z"/></defs><clipPath id="T"><use xlink:href="#S" overflow="visible"/></clipPath><path clip-path="url(#T)" fill="#231F20" d="M172.556 184.695s-.167-.266-.453-.773l-6.034 7.955v.028l9.903-4.225c-1.3-.903-2.47-1.895-3.417-2.985"/></g><g opacity=".28" clip-path="url(#d)"><defs><path id="U" d="M153.638 178.39h14.596v17.66h-14.596z"/></defs><clipPath id="V"><use xlink:href="#U" overflow="visible"/></clipPath><path clip-path="url(#V)" fill="#231F20" d="M153.638 178.39l14.594 17.66-2.162-4.145-10.632-12.972"/></g><g opacity=".28" clip-path="url(#d)"><defs><path id="W" d="M158.433 122.888h9.8v25.405h-9.8z"/></defs><clipPath id="X"><use xlink:href="#W" overflow="visible"/></clipPath><path clip-path="url(#X)" fill="#231F20" d="M168.23 122.89s-.955 1.114-3.63 2.424c-1.495 6.734-4.657 16.676-4.657 16.676-2.342 3.063-1.26 6.304-1.26 6.304 1.622-4.5 5.404-5.224 5.404-5.224l-1.98-.99c1.254-2.834 5.36-12.493 6.123-19.19"/></g><g opacity=".28" clip-path="url(#d)"><defs><path id="Y" d="M154.5 151.9h2.562v11.71H154.5z"/></defs><clipPath id="Z"><use xlink:href="#Y" overflow="visible"/></clipPath><path clip-path="url(#Z)" fill="#231F20" d="M155.8 161.992s-2.522-5.587-.54-10.093c0 0-1.08 5.404 1.802 11.71l-1.262-1.618z"/></g><g opacity=".28" clip-path="url(#d)"><defs><path id="aa" d="M152.827 153.52h13.782v25.995h-13.783z"/></defs><clipPath id="ab"><use xlink:href="#aa" overflow="visible"/></clipPath><path clip-path="url(#ab)" fill="#231F20" d="M162.404 171.87c.69-.294 1.944-.656 4.205-.914l-3.857.302-.092-.127 3.68-.985-4.13.357-5.69-7.97s-3.423-2.704-3.423-9.012c0 0-1.442 4.505 2.343 9.372l5.5 8.1-5.5 7.94.448.583 5.99-7.14.05.064.476-.57z"/></g><path clip-path="url(#d)" fill="none" stroke="#E2C53E" stroke-width=".208" stroke-dasharray="0.624,0.624" d="M168.006 124.285s-2.837 6.623-28.65 6.893l2.16 17.976-4.594.54s4.865 42.703 30.272 62.3"/><path clip-path="url(#d)" fill="#00394D" d="M146.982 162.167c0 1.557-1.26 2.816-2.813 2.816-1.556 0-2.815-1.26-2.815-2.816 0-1.556 1.26-2.815 2.814-2.815 1.552 0 2.812 1.26 2.812 2.815"/><path clip-path="url(#d)" fill="#231F20" d="M143.69 161.3c0 .245-.196.442-.44.442-.245 0-.443-.197-.443-.443 0-.242.198-.442.442-.442s.44.2.44.44M145.587 161.405c0 .24-.198.44-.44.44-.246 0-.443-.2-.443-.44 0-.25.197-.445.442-.445.243 0 .44.195.44.445M143.616 162.793c0 .245-.197.44-.443.44-.244 0-.442-.195-.442-.44 0-.248.2-.445.443-.445.246 0 .443.197.443.445M145.512 162.893c0 .243-.2.442-.443.442s-.445-.2-.445-.442c0-.24.2-.442.444-.442s.442.2.442.443"/><path clip-path="url(#d)" fill="#00394D" d="M152.794 179.782c0 1.555-1.26 2.813-2.815 2.813-1.553 0-2.814-1.258-2.814-2.813 0-1.554 1.26-2.817 2.813-2.817 1.554 0 2.814 1.264 2.814 2.817"/><path clip-path="url(#d)" fill="#231F20" d="M149.504 178.913c0 .246-.198.44-.444.44-.243 0-.442-.194-.442-.44 0-.243.2-.44.442-.44.246 0 .444.197.444.44M151.396 179.017c0 .243-.197.438-.44.438-.244 0-.442-.195-.442-.438 0-.246.198-.445.443-.445.242 0 .44.2.44.445M149.427 180.404c0 .247-.198.443-.44.443s-.442-.196-.442-.443c0-.246.198-.443.44-.443s.442.198.442.444M151.323 180.506c0 .246-.2.442-.444.442-.245 0-.444-.196-.444-.442 0-.243.2-.443.443-.443.244 0 .443.2.443.443"/><path clip-path="url(#d)" fill="#EB9C30" d="M129.85 165.715v7.53c7.492 1.926 14.854-.204 14.854-.204l6.784-8.22-11.236-4.6c-3.685 4.263-7.265 5.597-10.402 5.495"/><path clip-path="url(#d)" fill="#C1C3CC" d="M63.016 178.782l.743 5.808 9.822-1.316s.914-4.87-3.038-4.6l-5.905.51-1.624-.402zM64.8 184.626l1.673 5.26 9.84-3.294s.53-3.695-3.485-2.992c-4.015.697-8.03 1.026-8.03 1.026M68.4 189.83l1.387 3.344 7.8-2.572s.325-3.437-2.435-3.148c-.082.008-.165.018-.25.036-3.027.524-6.5 2.34-6.5 2.34"/><path clip-path="url(#d)" fill="#DAE3E5" d="M63.434 179.31s.486 4.564.486 4.593c0 .025.77-3.132.77-3.132l6.9-1.254H64.1l-.666-.205zM65.152 177.162l4.017-2.707 4.96-1.26-4.33 1.757-3.383 2.39 2.617 1.086s-2.934.675-3.882-1.266M65.648 185.328l1.264 3.203-.09-2.478 4.6-1.49M73.958 179.084c-.048-.075.592 5.782 5.586 6.433l-1.524-1.073 1.213.34-2.17-1.184 1.55.42-3.132-1.89 2.005.762-2.173-1.75s1.666.283 1.524.283c-.14 0-1.692-1.184-1.692-1.184s-.988-.844-1.186-1.156"/><path clip-path="url(#d)" fill="#FEFFFF" d="M90.438 19.672s1.9-1.365 4.57-.95c0 0 1.66.772.236 1.72 0 0-2.907.774-3.44.774 0 0-3.325.177-1.366-1.544"/><path clip-path="url(#d)" fill="#67BEEE" d="M239.32 186.97c.3-1.496-.148-2.62-.527-3.254l-3.797-3.473c-.276-.412-1.65-.55-1.65-.55l-58.205 2.197-11.394 47.637 57.384 6.728 8.922-1.1 9.3-48.193-.032.01z"/><path clip-path="url(#d)" fill="#67BEEE" d="M223.566 233.595c.45.09.22 1.37.25 2.17l-.58 33.164s0 2.21-1.863 2.676l-45.395 10.476s-2.678.932-6.402-.35l-48.48-13.238s-1.745 0-1.745-2.327l.06-33.893 43.787-3.158 58.176 4.206s1.61.157 2.193.273"/><path clip-path="url(#d)" fill="#A5DFF9" d="M221.954 266.846l-46.035 10.342-.49 5.034c.35-.074.548-.142.548-.142l45.396-10.475c.095-.024.166-.07.252-.102.87-2.005 1.61-3.742 1.61-3.742l-1.282-.914z"/><path clip-path="url(#d)" fill="#A5DFF9" d="M170.782 282.08c2.77.658 4.752.136 5.125.022v-41.82h-5.125v41.798z"/><path clip-path="url(#d)" fill="#00ABE6" d="M172.247 272.796s-.55 8.42-.55 9.335c0 .038.005.087.008.133 2.572.406 4.273-.182 4.273-.182l4.163-.96-7.893-8.324zM173.527 239l.185 8.897s5.984-4.41 7.394-6.53c.188-.283.293-.472.293-.536l-2.93-5.125-4.943 3.295z"/><path clip-path="url(#d)" fill="#A5DFF9" d="M223.806 236.23c-.728-.453-1.343-.852-1.497-.89-.367-.09-1.923.55-1.923.55l.915.55-.184 32.88s-1.055 2.155-.88 2.548l1.136-.262c1.862-.466 1.86-2.677 1.86-2.677l.572-32.7z"/><path clip-path="url(#d)" fill="#00ABE6" d="M223.817 235.766c-.032-.8.2-2.082-.25-2.17-.583-.117-2.194-.274-2.194-.274l-2.785-.202c-.006.007-.018.018-.02.025-.184.365-2.38 1.83-2.38 1.83l7.523 5.067.107-4.276z"/><path clip-path="url(#d)" fill="#4795DD" d="M168.504 235.705c-.49-.367-18.817-2.702-34.535-4.48l-14.56 1.048-.058 33.894c0 2.327 1.746 2.328 1.746 2.328l48.478 13.237c1.545.53 2.905.68 3.972.675l.168-39.94 5.13-5.02c0-.003-9.61-1.192-10.342-1.742"/><path clip-path="url(#d)" fill="#1E5C81" d="M135.758 244.542l-3.328-.817-.7.173v4.38l3.796.936"/><path clip-path="url(#d)" fill="#31AEE4" d="M131.73 243.9l2.978.7s-.176 1.87-.176 2.103c0 .232-.408 2.16-.408 2.16s-1.46.116-1.636.116c-.175 0-.76-.7-.76-.7v-4.38z"/><path clip-path="url(#d)" fill="#6EC5E9" d="M121.738 234.333l-2.332-.182-.055 32.016c0 2.327 1.747 2.328 1.747 2.328l.64.175v-34.337z"/><path clip-path="url(#d)" fill="#4584B8" d="M119.4 236.79l6.09-3.372s.826-.973 1.308-1.678l-7.387.532-.01 4.517z"/><path clip-path="url(#d)" fill="#6EC5E9" d="M119.355 265.085l-.003 1.08c0 2.328 1.746 2.33 1.746 2.33l48.478 13.236c.23.08.457.152.678.213l.997-4.48-49.787-12.538s-1.26 0-2.108.16"/><path clip-path="url(#d)" fill="#6EC5E9" d="M173.528 240.282h-2.747v41.798c1.043.247 1.974.328 2.748.326v-42.124z"/><path clip-path="url(#d)" fill="#4584B8" d="M164.925 241.38l8.786 6.517.006-5.43"/><path clip-path="url(#d)" fill="#81C3EB" d="M163.335 229.803l-43.235 2.422c-.68.2.59.398.59.398l50.167 9.777c2.095.35 5.47-.233 5.47-.233l47.41-8.423c-.042-.075-.094-.135-.17-.15-.582-.115-2.192-.273-2.192-.273l-58.04-3.517z"/><path clip-path="url(#d)" fill="#1E5C81" d="M130.91 246.118l4.03-1.75.817.174-.233 5.022s-3.27.525-3.445.116c-.177-.408-.644-1.46-.644-1.46l-.525-2.102z"/><path clip-path="url(#d)" fill="#1E5C81" d="M135.758 244.542l-.818-.175-4.03 1.75.16.634 4.682-2.07"/><path clip-path="url(#d)" fill="#4584B8" d="M119.36 262.37l-.01 3.796c0 2.327 1.747 2.328 1.747 2.328l3.5.956-5.236-7.08z"/><path clip-path="url(#d)" fill="#1E5C81" d="M128.234 247.328l-4.668-1.465v-7.504l4.668 1.464"/><path clip-path="url(#d)" fill="#31AEE4" d="M127.377 246.475l-3.876-1.216v-6.233l3.877 1.215"/><path clip-path="url(#d)" fill="#6EC5E9" d="M125.763 242.478c0 .605-.225 1.098-.504 1.098-.28 0-.504-.492-.504-1.098 0-.607.225-1.1.503-1.1s.503.492.503 1.1"/><path clip-path="url(#d)" fill="#1E5C81" d="M168.745 256.213l-5.93-1.525v-7.81l5.93 1.523"/><path clip-path="url(#d)" fill="#31AEE4" d="M167.657 255.325l-4.927-1.267v-6.485l4.927 1.264"/><path clip-path="url(#d)" fill="#6EC5E9" d="M165.605 251.164c0 .632-.287 1.143-.642 1.143-.352 0-.64-.51-.64-1.143s.288-1.145.64-1.145c.355 0 .642.512.642 1.144"/><path clip-path="url(#d)" fill="#1E5C81" d="M154.16 248.01l.686-.344 4.04 1.103v4.71l-.468.582-3.622-.904s-.64-3.42-.64-3.614l.003-1.534"/><path clip-path="url(#d)" fill="#31AEE4" d="M154.305 250.477c.19 1.073.49 2.68.49 2.68l3.438.86-.05-4.732-3.094-.902-.294.71s-.325.794-.49 1.384"/><path clip-path="url(#d)" fill="#A5DFF9" d="M149.016 250.732l5.14-2.744.992.23v4.907l-4.03 2.98s-1.52-.118-1.635-.645c-.117-.524-.876-2.218-.876-2.218l.232-2.628"/><path clip-path="url(#d)" fill="#1E5C81" d="M149.016 250.732l-.177-.117-.1 1.132c.512-.14 1.443-.664 1.443-.664l4.964-2.723v-.14l-.992-.232-5.14 2.744z"/><path clip-path="url(#d)" fill="#5090B2" d="M233.348 179.694s1.512.273.96 2.06l-10.157 49.284s.35 2.37-2.776 2.283l-57.627-4.342 11.396-47.088 58.205-2.196z"/><path clip-path="url(#d)" fill="#1E5C81" d="M232.387 181.342l-10.57 51.206-56.423-4.256 10.708-45.028M219.895 233.783l-44.48 7.55s-2.195.275-3.705 0l-47.362-8.648 39.4-3.157 56.147 4.255z"/><path clip-path="url(#d)" fill="#00ABE6" d="M223.334 265l-8.448 8.103 6.488-1.498c1.862-.465 1.86-2.676 1.86-2.676l.1-3.93z"/><path clip-path="url(#d)" fill="#4584B8" d="M169.576 281.732c1.544.53 2.904.68 3.972.674l.046-8.018-6.188 6.75 2.17.594z"/><path clip-path="url(#d)" fill="#002C3F" d="M131.26 246.586s10.28 4.146 18.222 4.264c0 0 1.636-.352 1.636 1.108v4.146l-1.11.468s-.524.467-1.108.292c0 0-13.26-1.81-18.922-5.432 0 0-.524-.058-.583-.817l.117-3.037s.117-1.11 1.05-1.344l.35-.116.35.292v.176z"/><path clip-path="url(#d)" fill="#1E5C81" d="M149.482 255.462l.06-2.802c.116-1.053-1.052-.878-1.052-.878-15.768-2.1-18.455-5.08-18.455-5.08l-.153-.014c-.314.397-.373.89-.373.89l-.117 3.036c.06.76.583.818.583.818 5.037 3.22 16.068 5.007 18.454 5.364 1.31-.027 1.052-1.334 1.052-1.334"/></g><g clip-path="url(#b)"><defs><path id="ac" d="M78.712 150.226l45.635 82.46 44.97 8.146c2.747 1.1 6.098.503 6.098.503l44.48-7.55 11.11-3.57 16.84-15.374s.183-37.34.366-43.015-18.304-25.992-21.416-29.288c-3.112-3.295-55.097-10.982-55.097-10.982l-92.985 18.67z"/></defs><clipPath id="ad"><use xlink:href="#ac" overflow="visible"/></clipPath><path clip-path="url(#ad)" fill="#FFEB97" d="M147.547 217.385c5.602 5.44 8.685 17.262 3.245 22.858-5.44 5.6-17.343 2.855-22.942-2.586-5.598-5.437-5.727-14.385-.287-19.983s14.388-5.726 19.984-.29"/><path clip-path="url(#ad)" fill="#FFEB97" d="M150.04 240.35l1.152 2.706 1.986-2.046s-3.413-2.486-3.44-2.536c-.022-.052.314 1.912.303 1.876"/><path clip-path="url(#ad)" fill="#FFEB97" d="M151.08 239.277l2.735 1.076-1.985 2.043s-2.585-3.34-2.636-3.362c-.048-.027 1.923.258 1.885.243"/><path clip-path="url(#ad)" fill="#E47F00" d="M175.81 212.604c2.7 8.276-.394 21.544-8.668 24.243s-18.598-6.188-21.3-14.463c-2.7-8.273 1.818-17.172 10.093-19.872 8.275-2.7 17.173 1.82 19.874 10.092"/><path clip-path="url(#ad)" fill="#E47F00" d="M166.346 236.562l-.268 3.268 3.02-.986s-2.076-4.227-2.077-4.29c.005-.064-.68 2.05-.674 2.008"/><path clip-path="url(#ad)" fill="#E47F00" d="M167.928 236.042l2.144 2.482-3.022.986s-.816-4.64-.854-4.687c-.036-.052 1.762 1.252 1.732 1.22"/><path clip-path="url(#ad)" fill="#FFDD20" d="M189.646 231.574c-1.227 8.815-10.015 19.62-18.826 18.395-8.816-1.226-14.32-14.02-13.095-22.834 1.225-8.813 9.363-14.966 18.18-13.74 8.812 1.226 14.965 9.365 13.74 18.178"/><path clip-path="url(#ad)" fill="none" stroke="#000" stroke-width=".275" d="M167.03 223.35l6.68 27.547M185.425 205.778l1.097 38.713"/><path clip-path="url(#ad)" fill="#FFDD20" d="M170.215 249.35l-1.71 2.883 3.22.45s-.017-4.817.012-4.876c.03-.056-1.548 1.58-1.522 1.543"/><path clip-path="url(#ad)" fill="#FFDD20" d="M171.9 249.582l.858 3.242-3.22-.448s1.328-4.63 1.314-4.69c-.006-.063 1.062 1.94 1.05 1.896"/><path clip-path="url(#ad)" fill="#A6CDCD" d="M173.725 195.63c2.99 8.928.457 23.493-7.605 26.715-8.066 3.227-18.61-6.115-21.6-15.045-2.993-8.928 1.116-18.78 9.184-22.002 8.065-3.227 17.03 1.4 20.02 10.332"/><path clip-path="url(#ad)" fill="#A6CDCD" d="M165.32 222.063l-.136 3.57 2.945-1.177s-2.218-4.54-2.22-4.604c0-.07-.595 2.257-.59 2.21"/><path clip-path="url(#ad)" fill="#A6CDCD" d="M166.863 221.443l2.216 2.633-2.95 1.178s-.987-5.027-1.028-5.082c-.036-.052 1.79 1.307 1.76 1.27"/><path clip-path="url(#ad)" fill="#FFEB97" d="M203.476 179.682c-.312 10.28-8.417 24.243-17.896 24.494-9.485.256-16.754-13.305-16.44-23.584.31-10.277 8.246-18.82 17.73-19.068 9.483-.255 16.916 7.876 16.606 18.158"/><path clip-path="url(#ad)" fill="#FFEB97" d="M184.868 203.585l-1.49 3.605 3.463-.09s-.555-5.49-.53-5.558c.024-.07-1.465 2.09-1.442 2.043"/><path clip-path="url(#ad)" fill="#FFEB97" d="M186.682 203.534l1.275 3.535-3.467.092s.89-5.526.868-5.597c-.016-.066 1.343 2.017 1.324 1.97"/><path clip-path="url(#ad)" fill="#A6CDCD" d="M216.675 220.176c-.468 9.95-8.542 23.343-17.73 23.435-9.188.092-16.01-13.157-15.54-23.107.468-9.95 8.295-18.095 17.48-18.183 9.19-.09 16.26 7.904 15.79 17.856"/><path clip-path="url(#ad)" fill="#A6CDCD" d="M198.267 243.024l-1.5 3.47 3.355-.033s-.45-5.324-.424-5.39c.025-.067-1.453 2-1.43 1.954"/><path clip-path="url(#ad)" fill="#A6CDCD" d="M200.026 243.006l1.177 3.443-3.36.034s.952-5.338.933-5.406c-.014-.065 1.266 1.972 1.25 1.928"/><path clip-path="url(#ad)" fill="#E47F00" d="M171.104 234.97c1.412 9.86-4.003 24.534-13.007 26.35-9.008 1.82-18.2-9.912-19.608-19.775-1.41-9.86 4.744-19.33 13.75-21.144 9.01-1.815 17.453 4.708 18.864 14.57"/><path clip-path="url(#ad)" fill="#E47F00" d="M157.32 260.872l-.822 3.69 3.29-.665s-1.443-5.144-1.43-5.212c.01-.072-1.052 2.235-1.04 2.187"/><path clip-path="url(#ad)" fill="#E47F00" d="M159.043 260.523l1.803 3.162-3.292.665s-.068-5.422-.1-5.486c-.027-.06 1.614 1.7 1.59 1.66"/></g><g clip-path="url(#b)"><defs><path id="ae" d="M0 0h268.96v282.408H0z"/></defs><clipPath id="af"><use xlink:href="#ae" overflow="visible"/></clipPath><path clip-path="url(#af)" fill="#FFF" d="M194.835 180.275c-.806-.108-1.37-.85-1.26-1.654.706-5.04 4.126-7.45 4.274-7.562h.002c.66-.47 1.577-.306 2.044.358.465.663.308 1.58-.356 2.045l-.002.002-.062.048c-.062.05-.157.13-.28.24-.243.222-.586.567-.945 1.034-.722.935-1.505 2.334-1.764 4.233-.107.794-.83 1.353-1.62 1.262l-.03-.005M149.032 201.47c-.81.08-1.525-.514-1.603-1.32-.464-5.07 2.312-8.2 2.433-8.34h.003c.537-.607 1.466-.658 2.072-.12.603.54.66 1.47.12 2.073l-.003.002c-.007.01-.025.03-.05.06-.048.063-.122.163-.216.297-.188.273-.442.688-.687 1.224-.49 1.077-.933 2.617-.752 4.525.077.8-.497 1.508-1.29 1.6h-.028M127.616 228.652c-.81.078-1.526-.514-1.603-1.322-.463-5.068 2.315-8.198 2.435-8.34.54-.606 1.468-.657 2.074-.118.604.54.66 1.468.12 2.072l-.003.002-.05.06c-.048.064-.123.163-.216.297-.187.273-.442.688-.686 1.224-.49 1.077-.933 2.617-.752 4.525.076.798-.498 1.507-1.29 1.6h-.03M144.78 232.302c-.725-.374-1.007-1.26-.634-1.982 2.358-4.51 6.39-5.633 6.566-5.688h.003c.78-.218 1.588.242 1.804 1.024.216.78-.24 1.592-1.022 1.807h-.002c-.014.006-.038.014-.075.024-.073.026-.19.07-.34.132-.307.127-.744.337-1.24.656-.995.64-2.203 1.693-3.084 3.396-.368.71-1.236.995-1.95.644l-.027-.014M188.9 217.108c-.792-.188-1.28-.98-1.093-1.77 1.202-4.945 4.843-7.008 5.003-7.104h.003c.704-.4 1.6-.148 2 .56.395.705.147 1.602-.56 2-.013.007-.036.02-.068.04-.065.043-.168.113-.3.21-.266.198-.64.507-1.045.938-.812.86-1.73 2.174-2.176 4.04-.185.777-.958 1.263-1.737 1.093-.01 0-.02-.004-.028-.007M189.744 266.25l-4.53 1.18-3.815-17.45 4.038-.71 2.14 12.735.046-.01 2.12-13.478 3.883-.68M204.204 251.157c0 .917-.135 1.737-.402 2.463-.267.728-.624 1.36-1.07 1.896-.446.54-.953.98-1.518 1.32-.565.343-1.138.58-1.718.714l-1.54.354v6.207l-3.503.913v-17.33l4.908-.862c.566-.1 1.136-.11 1.708-.037.573.072 1.094.266 1.563.58.47.314.85.78 1.14 1.396.29.612.434 1.408.434 2.387m-3.348.747c0-.76-.17-1.27-.513-1.537-.343-.268-.76-.354-1.25-.26l-1.138.218v4.452l1.138-.244c.49-.105.907-.39 1.25-.85.343-.46.513-1.052.513-1.78M212.978 261.344l-4.267-9.846-.066.014.09 10.623-3.19.83V245.75l3.926-.687 3.636 9.08.068-.016-.068-9.702 3.08-.54-.417 16.883"/></g></svg>