<svg xmlns="http://www.w3.org/2000/svg" xmlns:xlink="http://www.w3.org/1999/xlink" viewBox="2 9 384 387" enable-background="new 2 9 384 387"><defs><linearGradient id="4" gradientUnits="userSpaceOnUse" x1="214.57" y1="217.98" x2="103.98" y2="132.53"><stop stop-color="#6ab8d6"/><stop offset=".538" stop-color="#67b2cc"/><stop offset="1" stop-color="#63abc0"/></linearGradient><linearGradient id="5" gradientUnits="userSpaceOnUse" x1="200.18" y1="189.69" x2="179.65" y2="173.83" xlink:href="#3"/><linearGradient id="3" gradientUnits="userSpaceOnUse" x1="257.13" y1="141.69" x2="244.87" y2="132.22"><stop stop-color="#6ab8d6"/><stop offset=".466" stop-color="#62b4d0"/><stop offset="1" stop-color="#52acc5"/></linearGradient><linearGradient id="1" gradientUnits="userSpaceOnUse" x1="271.59" y1="270.58" x2="103.8" y2="124.87"><stop stop-color="#fff"/><stop offset=".441" stop-color="#f6f7f7"/><stop offset="1" stop-color="#e9e9ea"/></linearGradient><linearGradient id="0" gradientUnits="userSpaceOnUse" x1="295.23" y1="291.95" x2="261.06" y2="265.55" xlink:href="#3"/><linearGradient id="2" gradientUnits="userSpaceOnUse" x1="242.05" y1="230.17" x2="214.28" y2="208.72" xlink:href="#3"/></defs><g fill="#81c9e0"><circle cx="192" cy="202" r="185.9"/><circle cx="192.9" cy="202.4" r="185.9"/></g><circle fill="url(#4)" cx="190.1" cy="199.1" r="185.9"/><path fill="url(#3)" d="m218.8 134.8l29.8 27.5 31.4-23.2-33.6-32.8z"/><path fill="url(#5)" d="m196.6 129.2l39.7 37.8-58.5 63.2-43.4-39.6z"/><path fill="url(#2)" d="m148.4 246.2l51.7 48.8 108.9-106.3-29-26.4z"/><path fill="url(#0)" d="m313.1 156.6c25.6 25.9 24.1 53.2-4.4 81.7l-80.2 79.8c-.9.6 7.4-7.7 6.7-7.1l-2 2c-26.5 26.5-52.9 28.1-79.7 4.9l65.9 64.6c83-13.1 147.7-81.3 155.7-166l-62-59.9"/><path fill="#cddadd" d="m233 162.9l-40.8 40.8c-10 10-17.9 11.8-24.1 5.6-6.4-6.4-5-14.7 5-24.6l25.3-25.3c9.1-9.4 8.8-18.8-.6-28.5-9.4-9.4-19.1-9.4-28.7.3l-25.3 25.3c-28.7 28.7-30.6 55.8-5 81.1 25.9 26.2 53.5 24.3 82.2-4.7l40.8-40.8c9.7-9.4 17.6-10.8 24.1-4.4 6.4 6.7 5 14.7-4.7 24.3l-68.4 68.4-6.1 5.8c-9.7 9.7-19.4 9.7-29 0l-74.3-74.3c-10-10-10.3-19.4-.9-28.7l60.5-60.5.3-.3 6.4-6.4c10-10 19.4-10.3 28.7-1.1l21.8 21.8c9.7 9.4 19.4 9.4 28.5.3 9.4-9.4 9.1-19.1-.9-28.7l-21.2-21.2c-28.5-28.5-56.9-28.2-85.2.6l-4.7 4.7c-.9.6-1.7 1.4-2.7 2.4l-59.6 60.2c-28.5 28.5-28.2 56.9.3 85.5l73.7 73.7c29 29 57.6 29.3 86.1.9l2-2c.6-.6-7.7 7.7-6.7 7.1l80.2-79.8c28.5-28.5 30-55.8 4.4-81.7-25-25.5-52.3-24-81.4 4.2"/><path fill="#fff" d="m233 162.9l-40.8 40.8c-10 10-17.9 11.8-24.1 5.6-6.4-6.4-5-14.7 5-24.6l25.3-25.3c9.1-9.4 8.8-18.8-.6-28.5-9.4-9.4-19.1-9.4-28.7.3l-25.3 25.3c-28.7 28.7-30.6 55.8-5 81.1 25.9 26.2 53.5 24.3 82.2-4.7l40.8-40.8c9.7-9.4 17.6-10.8 24.1-4.4 6.4 6.7 5 14.7-4.7 24.3l-68.4 68.4-6.1 5.8c-9.7 9.7-19.4 9.7-29 0l-74.3-74.3c-10-10-10.3-19.4-.9-28.7l60.5-60.5.3-.3 6.4-6.4c10-10 19.4-10.3 28.7-1.1l21.8 21.8c9.7 9.4 19.4 9.4 28.5.3 9.4-9.4 9.1-19.1-.9-28.7l-21.2-21.2c-28.5-28.5-56.9-28.2-85.2.6l-4.7 4.7c-.9.6-1.7 1.4-2.7 2.4l-59.6 60.2c-28.5 28.5-28.2 56.9.3 85.5l73.7 73.7c29 29 57.6 29.3 86.1.9l2-2c.6-.6-7.7 7.7-6.7 7.1l80.2-79.8c28.5-28.5 30-55.8 4.4-81.7-25-25.5-52.3-24-81.4 4.2"/><path fill="url(#1)" d="m231.7 161.3l-40.8 40.8c-10 10-17.9 11.8-24.1 5.6-6.4-6.4-5-14.7 5-24.6l25.3-25.3c9.1-9.4 8.8-18.8-.6-28.5-9.4-9.4-19.1-9.4-28.7.3l-25.3 25.3c-28.7 28.7-30.6 55.8-5 81.1 25.9 26.2 53.5 24.3 82.2-4.7l40.8-40.8c9.7-9.4 17.6-10.8 24.1-4.4 6.4 6.7 5 14.7-4.7 24.3l-68.4 68.4-6.1 5.8c-9.7 9.7-19.4 9.7-29 0l-74.4-74.4c-10-10-10.3-19.4-.9-28.7l60.5-60.5.3-.3 6.4-6.4c10-10 19.4-10.3 28.7-1.1l21.8 21.8c9.7 9.4 19.4 9.4 28.5.3 9.4-9.4 9.1-19.1-.9-28.7l-21.2-21.2c-28.5-28.5-56.9-28.2-85.2.6l-4.7 4.7c-.9.6-1.7 1.4-2.7 2.4l-59.6 60.2c-28.5 28.5-28.2 56.9.3 85.5l73.7 73.7c29 29 57.6 29.3 86.1.9l2-2c.6-.6-7.7 7.7-6.7 7.1l80.2-79.8c28.5-28.5 30-55.8 4.4-81.7-24.8-25.5-52.1-24-81.3 4.3"/><circle fill="#0bd318" cx="321.5" cy="72.2" r="58.5"/><path fill="#fff" d="m362.8 64.5h-6.3c-2.9-14.2-14.1-25.6-28.4-28.6-15.9-3.5-32.1 4.6-39.9 18.5-1.6 2.9 2.8 5.4 4.4 2.5 5.7-10.4 16.5-16.8 28.1-16.8 2.3 0 4.6.2 6.9.7 12 2.6 20.8 12.1 23.8 23.6h-5.3c-2.1-.6-4.4 2.3-2.5 4.3 2.9 3.4 5.8 6.6 8.7 10 1 1 2.8 1 3.6 0 2.9-3.4 5.8-6.6 8.7-10 1.4-1.6.5-4.2-1.8-4.2m-11.5 22.9c-5.7 10.4-16.5 16.8-28.1 16.8-2.3 0-4.6-.2-6.9-.7-12-2.6-20.8-12.1-23.8-23.6h5.3c2.1.6 4.4-2.3 2.5-4.3-2.9-3.4-5.8-6.6-8.7-10-1-1-2.8-1-3.6 0-2.9 3.4-5.8 6.6-8.7 10-1.3 1.7-.5 4.3 1.8 4.3h6.2c2.9 14.2 14.2 25.6 28.5 28.7 15.9 3.5 32.1-4.6 39.9-18.6 1.6-2.9-2.8-5.5-4.4-2.6"/></svg>