<svg xmlns="http://www.w3.org/2000/svg" xmlns:xlink="http://www.w3.org/1999/xlink" width="20" height="20" viewBox="-50.6 437.7 128 128" enable-background="new -50.6 437.7 128 128"><defs><linearGradient id="4" gradientUnits="userSpaceOnUse" x1="20.11" y1="506.05" x2="-16.756" y2="477.57"><stop stop-color="#6ab8d6"/><stop offset=".538" stop-color="#67b2cc"/><stop offset="1" stop-color="#63abc0"/></linearGradient><linearGradient id="5" gradientUnits="userSpaceOnUse" x1="15.312" y1="496.62" x2="8.469" y2="491.34" xlink:href="#3"/><linearGradient id="3" gradientUnits="userSpaceOnUse" x1="34.29" y1="480.62" x2="30.21" y2="477.47"><stop stop-color="#6ab8d6"/><stop offset=".466" stop-color="#62b4d0"/><stop offset="1" stop-color="#52acc5"/></linearGradient><linearGradient id="1" gradientUnits="userSpaceOnUse" x1="39.11" y1="523.59" x2="-16.816" y2="475.02"><stop stop-color="#fff"/><stop offset=".441" stop-color="#f6f7f7"/><stop offset="1" stop-color="#e9e9ea"/></linearGradient><linearGradient id="0" gradientUnits="userSpaceOnUse" x1="46.995" y1="530.71" x2="35.606" y2="521.91" xlink:href="#3"/><linearGradient id="2" gradientUnits="userSpaceOnUse" x1="29.27" y1="510.12" x2="20.01" y2="502.96" xlink:href="#3"/></defs><g fill="#81c9e0"><circle cx="12.6" cy="500.7" r="62"/><circle cx="12.9" cy="500.8" r="62"/></g><circle fill="url(#4)" cx="12" cy="499.8" r="62"/><path fill="url(#3)" d="m21.5 478.3l9.9 9.2 10.5-7.7-11.2-11z"/><path fill="url(#5)" d="m14.1 476.4l13.3 12.7-19.5 21-14.5-13.2z"/><path fill="url(#2)" d="m-1.9 515.5l17.2 16.2 36.3-35.4-9.7-8.8z"/><path fill="url(#0)" d="m53 485.6c8.5 8.6 8 17.7-1.5 27.2l-26.7 26.6c-.3.2 2.5-2.6 2.2-2.4l-.7.7c-8.8 8.8-17.6 9.4-26.6 1.6l22 21.5c27.7-4.4 49.2-27.1 51.9-55.3l-20.6-19.9"/><path fill="#cddadd" d="m26.2 487.7l-13.6 13.6c-3.3 3.3-6 3.9-8 1.9-2.1-2.1-1.7-4.9 1.7-8.2l8.4-8.4c3-3.1 2.9-6.3-.2-9.5-3.1-3.1-6.4-3.1-9.6.1l-8.4 8.4c-9.6 9.6-10.2 18.6-1.7 27 8.6 8.7 17.8 8.1 27.4-1.6l13.6-13.6c3.2-3.1 5.9-3.6 8-1.5 2.1 2.2 1.7 4.9-1.6 8.1l-22.8 22.8-2 1.9c-3.2 3.2-6.5 3.2-9.7 0l-24.7-24.7c-3.3-3.3-3.4-6.5-.3-9.6l20.2-20.2.1-.1 2.1-2.1c3.3-3.3 6.5-3.4 9.6-.4l7.3 7.3c3.2 3.1 6.5 3.1 9.5.1 3.1-3.1 3-6.4-.3-9.6l-7.1-7.1c-9.5-9.5-19-9.4-28.4.2l-1.6 1.6c-.3.2-.6.5-.9.8l-19.8 20.1c-9.5 9.5-9.4 19 .1 28.5l24.6 24.6c9.7 9.7 19.2 9.8 28.7.3l.7-.7c.2-.2-2.6 2.6-2.2 2.4l26.7-26.6c9.5-9.5 10-18.6 1.5-27.2-8.5-8.5-17.6-8-27.3 1.4"/><path fill="#fff" d="m26.2 487.7l-13.6 13.6c-3.3 3.3-6 3.9-8 1.9-2.1-2.1-1.7-4.9 1.7-8.2l8.4-8.4c3-3.1 2.9-6.3-.2-9.5-3.1-3.1-6.4-3.1-9.6.1l-8.4 8.4c-9.6 9.6-10.2 18.6-1.7 27 8.6 8.7 17.8 8.1 27.4-1.6l13.6-13.6c3.2-3.1 5.9-3.6 8-1.5 2.1 2.2 1.7 4.9-1.6 8.1l-22.8 22.8-2 1.9c-3.2 3.2-6.5 3.2-9.7 0l-24.7-24.7c-3.3-3.3-3.4-6.5-.3-9.6l20.2-20.2.1-.1 2.1-2.1c3.3-3.3 6.5-3.4 9.6-.4l7.3 7.3c3.2 3.1 6.5 3.1 9.5.1 3.1-3.1 3-6.4-.3-9.6l-7.1-7.1c-9.5-9.5-19-9.4-28.4.2l-1.6 1.6c-.3.2-.6.5-.9.8l-19.8 20.1c-9.5 9.5-9.4 19 .1 28.5l24.6 24.6c9.7 9.7 19.2 9.8 28.7.3l.7-.7c.2-.2-2.6 2.6-2.2 2.4l26.7-26.6c9.5-9.5 10-18.6 1.5-27.2-8.5-8.5-17.6-8-27.3 1.4"/><path fill="url(#1)" d="m25.8 487.1l-13.6 13.6c-3.3 3.3-6 3.9-8 1.9-2.1-2.1-1.7-4.9 1.7-8.2l8.4-8.4c3-3.1 2.9-6.3-.2-9.5-3.1-3.1-6.4-3.1-9.6.1l-8.4 8.4c-9.6 9.6-10.2 18.6-1.7 27 8.6 8.7 17.8 8.1 27.4-1.6l13.6-13.6c3.2-3.1 5.9-3.6 8-1.5 2.1 2.2 1.7 4.9-1.6 8.1l-22.8 22.8-2 1.9c-3.2 3.2-6.5 3.2-9.7 0l-24.8-24.8c-3.3-3.3-3.4-6.5-.3-9.6l20.2-20.2.1-.1 2.1-2.1c3.3-3.3 6.5-3.4 9.6-.4l7.3 7.3c3.2 3.1 6.5 3.1 9.5.1 3.1-3.1 3-6.4-.3-9.6l-7.1-7.1c-9.5-9.5-19-9.4-28.4.2l-1.6 1.6c-.3.2-.6.5-.9.8l-19.7 20.3c-9.5 9.5-9.4 19 .1 28.5l24.6 24.6c9.7 9.7 19.2 9.8 28.7.3l.7-.7c.2-.2-2.6 2.6-2.2 2.4l26.7-26.6c9.5-9.5 10-18.6 1.5-27.2-8.5-8.6-17.6-8.1-27.3 1.3"/></svg>